<?xml version="1.0" encoding="utf-8"?>
<!-- Generator: Adobe Illustrator 27.4.1, SVG Export Plug-In . SVG Version: 6.00 Build 0)  -->
<svg version="1.1" id="Layer_1" xmlns="http://www.w3.org/2000/svg" xmlns:xlink="http://www.w3.org/1999/xlink" x="0px" y="0px"
	 viewBox="0 0 360 360" style="enable-background:new 0 0 360 360;" xml:space="preserve">
<style type="text/css">
	.st0{fill:#F8A34D;}
	.st1{fill:#F15B2B;}
	.st2{fill:#EF4237;stroke:#FFFFFF;stroke-miterlimit:10;}
	.st3{fill:#F89521;}
	.st4{fill:none;stroke:#FFFFFF;stroke-miterlimit:10;}
	.st5{fill:#FFFFFF;}
	.st6{fill:#F89521;stroke:#FFFFFF;stroke-miterlimit:10;}
	.st7{fill:#FCEE23;}
	.st8{font-family:'AnisetteStd-Regular';}
	.st9{font-size:52.5819px;}
	.st10{letter-spacing:3.5;}
	.st11{fill:#FCF49D;}
	.st12{fill:#EF4237;}
	.st13{fill:#FBF06E;}
	.st14{fill:#88D1CE;}
	.st15{fill:#3DB54A;}
	.st16{fill:#F26724;}
	.st17{fill:#FBB042;}
	.st18{fill:#804099;}
	.st19{fill:#29AAE1;}
	.st20{fill:none;stroke:#F2F2F2;stroke-miterlimit:10;}
	.st21{fill:#EC2227;}
	.st22{fill:#010101;}
	.st23{fill:#F68B21;}
	.st24{fill:#2E3690;stroke:#2E3690;stroke-miterlimit:10;}
	.st25{fill:#FFFFFF;stroke:#FFFFFF;stroke-miterlimit:10;}
	.st26{fill:#F68B21;stroke:#F68B21;stroke-miterlimit:10;}
	.st27{fill:#FCB918;}
</style>
<g>
	<path class="st0" d="M332.24,228.02c0.18-2.31,0.3-4.62,0.3-6.96c0-2.34-0.12-4.66-0.3-6.96V20.94H14.4v207.09h0.3
		c4.86,61.93,74.07,111.04,158.77,111.04S327.38,289.95,332.24,228.02L332.24,228.02L332.24,228.02z"/>
	<g>
		<g>
			<path class="st1" d="M175.75,168.14c-42.11,0-76.25,29.52-76.25,65.93H252C252,197.65,217.86,168.14,175.75,168.14z"/>
			<path class="st2" d="M175.75,174.27c-38.19,0-69.15,26.83-69.15,59.94H244.9C244.9,201.1,213.94,174.27,175.75,174.27z"/>
			<rect x="107.79" y="232" class="st3" width="135.88" height="2.2"/>
			<line class="st4" x1="138.09" y1="184.14" x2="177.5" y2="233.75"/>
			<line class="st4" x1="211.37" y1="183.02" x2="172.96" y2="236.77"/>
			<polygon class="st5" points="177.43,234.36 175.41,233.27 175.19,233.61 174.97,233.25 172.96,234.36 			"/>
		</g>
		<g>
			<path class="st1" d="M175.73,292.7c42.11,0,76.25-27.67,76.25-61.79H99.48C99.48,265.04,133.62,292.7,175.73,292.7z"/>
			<path class="st6" d="M175.73,286.95c38.19,0,69.15-24.67,69.15-55.11H106.58C106.58,262.28,137.54,286.95,175.73,286.95z"/>
			<polygon class="st3" points="108.26,231.46 243.14,230.4 243.14,234.36 108.26,234.36 			"/>
			<line class="st4" x1="213.39" y1="277.7" x2="177.5" y2="231.11"/>
			<line class="st4" x1="140.11" y1="278.75" x2="175.09" y2="231.11"/>
			<polygon class="st5" points="174.05,230.63 176.07,231.65 176.3,231.34 176.51,231.67 178.52,230.63 			"/>
		</g>
		<line class="st4" x1="107.77" y1="232.87" x2="244.8" y2="228.95"/>
	</g>
	<text transform="matrix(1.1443 0 0 1 24.8033 75.7005)" class="st7 st8 st9 st10">Sunshine</text>
	<g>
		<g>
			<path class="st11" d="M94.01,108.19c0,1.7-0.38,3.33-1.13,4.89c-0.75,1.56-1.83,2.88-3.25,3.98c-1.19,0.92-2.52,1.63-3.98,2.11
				c-1.46,0.48-3.11,0.73-4.96,0.73c-1.74,0-3.37-0.24-4.89-0.72c-1.52-0.48-2.88-1.18-4.07-2.1c-1.38-1.07-2.44-2.39-3.19-3.96
				c-0.75-1.57-1.13-3.23-1.13-4.97c0-1.69,0.32-3.24,0.96-4.65c0.64-1.42,1.64-2.69,3-3.82c1.21-1.03,2.62-1.82,4.24-2.37
				c1.61-0.55,3.31-0.83,5.11-0.83c1.88,0,3.59,0.25,5.12,0.76c1.53,0.51,2.89,1.27,4.09,2.28c1.38,1.16,2.4,2.46,3.07,3.91
				C93.68,104.88,94.01,106.46,94.01,108.19z M89.67,108.35c0-1.38-0.28-2.72-0.83-4.03c-0.55-1.31-1.41-2.41-2.57-3.3
				c-0.71-0.56-1.54-0.99-2.51-1.29c-0.97-0.3-1.98-0.45-3.03-0.45c-1.25,0-2.34,0.16-3.26,0.48s-1.79,0.83-2.61,1.52
				c-0.96,0.79-1.72,1.8-2.27,3.04c-0.55,1.23-0.83,2.51-0.83,3.83c0,1.5,0.28,2.87,0.84,4.13c0.56,1.25,1.47,2.34,2.72,3.25
				c0.71,0.51,1.52,0.91,2.44,1.18s1.9,0.41,2.93,0.41c1.14,0,2.2-0.16,3.19-0.48c0.99-0.32,1.85-0.79,2.59-1.41
				c1.03-0.85,1.82-1.88,2.36-3.08C89.4,110.93,89.67,109.67,89.67,108.35z"/>
			<path class="st11" d="M120.17,99.66c-1,0.19-2.52,0.59-4.58,1.21s-4.42,1.44-7.1,2.46c0,0.16-0.01,0.9-0.03,2.21
				s-0.03,2.53-0.03,3.66c0,1.73,0.02,3.79,0.07,6.16c0.04,2.38,0.07,3.7,0.07,3.96h-4.29c0-0.25,0.02-1.07,0.05-2.46
				c0.04-1.39,0.05-3.78,0.05-7.15c0-1.36-0.01-3.27-0.03-5.72c-0.02-2.45-0.05-4.76-0.08-6.93h4.21v3.35l0.03,0.02
				c2.05-0.94,4.06-1.75,6.06-2.44c1.99-0.69,3.58-1.16,4.78-1.41L120.17,99.66z"/>
			<path class="st11" d="M147.34,106.79c0,3.64-0.01,6.6-0.03,8.89c-0.02,2.29-0.03,3.52-0.03,3.7c-0.18,0.01-1.02,0.07-2.53,0.17
				c-1.5,0.1-3.44,0.14-5.81,0.14c-1.48,0-2.98-0.11-4.48-0.33c-1.5-0.22-2.8-0.54-3.88-0.95c-1.45-0.54-2.62-1.28-3.52-2.22
				c-0.9-0.94-1.34-2.07-1.34-3.39c0-1.39,0.53-2.6,1.59-3.62c1.06-1.02,2.53-1.84,4.41-2.48c1.18-0.4,2.75-0.75,4.71-1.07
				c1.96-0.32,4.2-0.55,6.72-0.72c-0.11-1.14-0.46-2.08-1.06-2.82c-0.6-0.73-1.48-1.29-2.63-1.67c-0.8-0.26-1.68-0.45-2.66-0.56
				c-0.98-0.11-2.12-0.17-3.42-0.17c-0.81,0-1.51,0.02-2.08,0.04s-1.34,0.07-2.32,0.11l0.43-2.93c0.27-0.01,0.81-0.04,1.62-0.08
				s1.91-0.06,3.3-0.06c2.14,0,4.04,0.18,5.72,0.54c1.67,0.36,3.06,0.94,4.17,1.75c1.03,0.76,1.81,1.71,2.34,2.83
				S147.34,104.66,147.34,106.79z M143.19,112.09c0-0.5,0-1.13,0-1.89c0-0.76-0.01-1.64-0.03-2.64c-0.8,0.03-2.19,0.16-4.18,0.39
				c-1.99,0.23-3.67,0.55-5.02,0.98c-1.01,0.31-1.91,0.77-2.7,1.39s-1.18,1.38-1.18,2.29c0,1,0.33,1.8,1,2.41
				c0.67,0.61,1.58,1.07,2.74,1.4c0.89,0.25,1.87,0.43,2.95,0.54s2.21,0.17,3.41,0.17c0.36,0,0.81-0.01,1.33-0.02
				c0.52-0.01,1.08-0.03,1.66-0.04c0-0.1,0-0.59,0.01-1.45C143.18,114.72,143.19,113.56,143.19,112.09z"/>
			<path class="st11" d="M182.36,119.33h-4.29c0.02-0.41,0.04-1.77,0.07-4.07c0.03-2.3,0.04-3.73,0.04-4.27c0-0.76,0-1.89-0.01-3.38
				c-0.01-1.49-0.02-2.58-0.04-3.27c-0.05-1.69-0.45-2.9-1.19-3.63c-0.74-0.73-2.03-1.1-3.86-1.1c-1.1,0-2.47,0.26-4.1,0.79
				c-1.63,0.53-3.28,1.2-4.94,2.02c0,0.16-0.01,1.03-0.03,2.62c-0.02,1.58-0.03,3.03-0.03,4.34c0,1.7,0.02,3.76,0.07,6.16
				c0.04,2.41,0.07,3.67,0.07,3.79h-4.29c0-0.1,0.02-1,0.05-2.7c0.04-1.69,0.05-4.21,0.05-7.56c0-1.54,0-3.34-0.01-5.41
				c-0.01-2.07-0.04-4.27-0.09-6.6h4.24l-0.03,2.53l0.03,0.04c2.53-1.17,4.65-1.99,6.34-2.45c1.69-0.46,3.1-0.69,4.22-0.69
				c2.32,0,4.18,0.59,5.58,1.77c1.4,1.18,2.1,2.8,2.1,4.85c0,1.85-0.01,3.44-0.04,4.79s-0.04,2.43-0.04,3.27
				c0,1.33,0.02,3,0.07,5.01C182.33,118.17,182.36,119.23,182.36,119.33z"/>
			<path class="st11" d="M215.69,96.86c0,0.32-0.01,1.78-0.04,4.36c-0.03,2.58-0.04,5.04-0.04,7.37c0,1.58,0.01,3.2,0.03,4.84
				c0.02,1.64,0.03,3.15,0.03,4.51c0,2.51-0.53,4.47-1.59,5.9c-1.06,1.42-2.57,2.56-4.52,3.41c-1.54,0.65-3.41,1.16-5.62,1.53
				c-2.21,0.37-4.89,0.56-8.04,0.56l-0.43-2.79c2.12-0.03,4.02-0.12,5.7-0.27c1.68-0.15,3.21-0.44,4.59-0.85
				c2.12-0.65,3.59-1.5,4.43-2.56c0.83-1.06,1.27-2.36,1.3-3.88c-0.22,0-0.43,0-0.65,0c-0.22,0-0.43,0-0.65,0
				c-2.16,0-4.37-0.21-6.65-0.63c-2.28-0.42-4.23-1.08-5.84-1.99c-1.59-0.87-2.89-2-3.88-3.39c-1-1.39-1.49-3.12-1.49-5.17
				c0-2.05,0.7-3.87,2.09-5.44c1.39-1.57,3.26-2.82,5.59-3.74c1.67-0.66,3.48-1.12,5.44-1.38c1.96-0.26,4.34-0.39,7.13-0.39
				c0.51,0,1.01,0,1.51,0S215.11,96.86,215.69,96.86z M211.53,108.56c0-1.06,0-2.37-0.01-3.96s-0.03-3.23-0.07-4.95
				c-0.11,0-0.23,0-0.35,0s-0.24,0-0.35,0c-1.68,0-3.16,0.09-4.41,0.26c-1.26,0.18-2.58,0.51-3.98,0.99
				c-1.85,0.64-3.26,1.59-4.24,2.83s-1.47,2.65-1.47,4.22c0,1.61,0.48,2.99,1.45,4.13s2.27,2.03,3.9,2.66
				c1.1,0.42,2.38,0.77,3.84,1.03s3,0.4,4.63,0.4c0.2,0,0.38,0,0.54,0s0.32,0,0.46,0c0-0.18,0.01-0.99,0.03-2.45
				S211.53,110.55,211.53,108.56z"/>
			<path class="st11" d="M249.51,107.38h-19.63c0.02,1.56,0.42,2.98,1.22,4.28s2.02,2.37,3.67,3.22c1.05,0.54,2.25,0.95,3.58,1.22
				c1.34,0.27,2.95,0.41,4.83,0.41c1.03,0,1.98-0.02,2.84-0.07c0.86-0.04,1.39-0.07,1.59-0.09l-0.49,2.93
				c-0.15,0.01-0.62,0.04-1.44,0.08c-0.81,0.04-1.77,0.05-2.88,0.05c-2.9,0-5.42-0.3-7.56-0.91s-3.91-1.45-5.28-2.52
				c-1.18-0.89-2.18-2.04-3-3.43c-0.82-1.39-1.24-2.94-1.24-4.64c0-1.67,0.31-3.18,0.92-4.53c0.62-1.35,1.54-2.6,2.77-3.76
				c1.07-1,2.39-1.77,3.98-2.31c1.58-0.54,3.23-0.81,4.93-0.81c1.68,0,3.18,0.21,4.48,0.62c1.3,0.41,2.43,1.03,3.39,1.87
				c1.07,0.94,1.88,2.09,2.44,3.47C249.2,103.81,249.49,105.46,249.51,107.38z M245.3,104.92c-0.29-1.82-1.06-3.25-2.29-4.28
				c-1.24-1.03-2.87-1.55-4.9-1.55c-2.03,0-3.72,0.52-5.08,1.57c-1.36,1.05-2.3,2.47-2.82,4.26H245.3z"/>
			<path class="st11" d="M274.42,112.88c0,1.09-0.33,2.05-0.98,2.91s-1.5,1.54-2.56,2.07c-1.11,0.56-2.42,0.98-3.93,1.27
				s-3.19,0.43-5.02,0.43c-0.89,0-1.81-0.03-2.76-0.1s-1.49-0.11-1.62-0.12l-0.16-2.88c0.16,0.01,0.79,0.05,1.89,0.12
				c1.09,0.07,2.19,0.1,3.27,0.1c0.63,0,1.45-0.04,2.44-0.13c1-0.09,1.82-0.25,2.47-0.48c0.91-0.32,1.58-0.72,2.01-1.19
				c0.43-0.47,0.65-1.03,0.65-1.69c0-0.6-0.19-1.09-0.57-1.46c-0.38-0.37-0.91-0.74-1.58-1.09c-0.72-0.4-1.71-0.82-2.97-1.27
				c-1.26-0.45-2.31-0.88-3.16-1.29c-1.21-0.6-2.14-1.31-2.78-2.13c-0.64-0.82-0.96-1.77-0.96-2.86c0-1.09,0.37-2.06,1.1-2.93
				s1.72-1.56,2.95-2.09c1.07-0.47,2.25-0.78,3.55-0.94c1.3-0.15,2.55-0.23,3.77-0.23c1.11,0,2.01,0.02,2.72,0.04
				c0.71,0.03,1.12,0.04,1.22,0.04l0.3,2.93c-0.13,0-0.69-0.03-1.67-0.09s-2.07-0.09-3.25-0.09c-0.83,0-1.63,0.06-2.38,0.18
				c-0.75,0.12-1.39,0.29-1.92,0.51c-0.78,0.32-1.34,0.71-1.67,1.17c-0.34,0.46-0.5,0.9-0.5,1.32c0,0.59,0.24,1.09,0.71,1.52
				c0.47,0.43,1.03,0.79,1.66,1.08c0.74,0.35,1.76,0.77,3.05,1.25c1.29,0.48,2.22,0.87,2.8,1.17c1.27,0.65,2.24,1.36,2.9,2.16
				C274.09,110.86,274.42,111.8,274.42,112.88z"/>
		</g>
	</g>
	<g>
		<g>
			<path class="st12" d="M114.06,309.18c0,0.89-0.25,1.67-0.76,2.34c-0.51,0.67-1.16,1.21-1.95,1.61c-0.56,0.29-1.26,0.53-2.1,0.71
				s-1.86,0.28-3.06,0.28c-0.3,0-0.52,0-0.67,0s-0.33,0-0.53,0c0-0.16,0-1.14,0.01-2.96c0-1.81,0.01-3.08,0.01-3.82
				c0-1.09,0-2.45-0.01-4.08c-0.01-1.63-0.01-2.54-0.01-2.72h2.09l-0.02,4.18c1.06,0.03,1.97,0.13,2.74,0.3
				c0.77,0.18,1.4,0.39,1.89,0.65c0.74,0.38,1.32,0.87,1.74,1.44C113.85,307.72,114.06,308.4,114.06,309.18z M111.98,309.2
				c0-0.6-0.13-1.12-0.4-1.56c-0.27-0.44-0.67-0.82-1.22-1.13c-0.41-0.23-0.89-0.41-1.44-0.54c-0.55-0.12-1.1-0.19-1.64-0.19
				c-0.02,0-0.05,0-0.09,0s-0.08,0-0.12,0c0,0.03,0,0.45,0,1.25s0,1.56,0,2.26c0,0.65,0,1.4,0,2.24s0,1.36,0,1.54
				c0.65-0.01,1.22-0.08,1.73-0.19c0.5-0.12,0.95-0.28,1.34-0.49c0.6-0.32,1.05-0.74,1.37-1.26
				C111.82,310.64,111.98,309.99,111.98,309.2z"/>
			<path class="st12" d="M121.14,314h-2.07c0-0.23,0-1,0.01-2.3c0-1.3,0.01-2.86,0.01-4.69c0-1.5,0-2.78-0.01-3.86
				c-0.01-1.08-0.01-1.94-0.01-2.59h2.07c0,0.1,0,0.97-0.01,2.61c0,1.64-0.01,2.94-0.01,3.88c0,1.19,0,2.6,0.01,4.25
				C121.14,312.94,121.14,313.85,121.14,314z"/>
			<path class="st12" d="M135.59,309.36c0,0.69-0.11,1.36-0.32,2.02c-0.21,0.65-0.58,1.22-1.09,1.69c-0.41,0.37-0.89,0.66-1.43,0.86
				c-0.54,0.2-1.17,0.3-1.88,0.3c-0.67,0-1.3-0.11-1.88-0.32s-1.06-0.49-1.45-0.85c-0.53-0.49-0.89-1.05-1.1-1.69
				c-0.21-0.64-0.31-1.31-0.31-2.02c0-0.77,0.1-1.44,0.29-2s0.53-1.09,1.03-1.6c0.41-0.42,0.93-0.73,1.54-0.94s1.24-0.32,1.88-0.32
				c0.68,0,1.31,0.1,1.89,0.3c0.58,0.2,1.08,0.52,1.52,0.95c0.44,0.44,0.77,0.96,0.99,1.56
				C135.48,307.92,135.59,308.6,135.59,309.36z M133.5,309.36c0-0.62-0.07-1.21-0.22-1.76s-0.37-0.99-0.66-1.3
				c-0.22-0.23-0.47-0.41-0.77-0.54c-0.29-0.13-0.62-0.2-0.98-0.2c-0.36,0-0.69,0.06-0.98,0.19s-0.55,0.31-0.78,0.55
				c-0.27,0.28-0.48,0.68-0.64,1.23c-0.16,0.54-0.24,1.16-0.24,1.83c0,0.63,0.07,1.21,0.2,1.73c0.13,0.53,0.34,0.95,0.62,1.27
				c0.23,0.26,0.5,0.46,0.8,0.61c0.31,0.14,0.64,0.21,1.01,0.21c0.38,0,0.72-0.07,1.03-0.21c0.3-0.14,0.57-0.34,0.8-0.61
				c0.28-0.34,0.48-0.76,0.62-1.28C133.43,310.56,133.5,309.99,133.5,309.36z"/>
			<path class="st12" d="M149.05,309.36c0,0.69-0.11,1.36-0.32,2.02c-0.21,0.65-0.58,1.22-1.09,1.69c-0.41,0.37-0.89,0.66-1.43,0.86
				c-0.54,0.2-1.17,0.3-1.88,0.3c-0.67,0-1.3-0.11-1.88-0.32s-1.06-0.49-1.45-0.85c-0.53-0.49-0.89-1.05-1.1-1.69
				c-0.21-0.64-0.31-1.31-0.31-2.02c0-0.77,0.1-1.44,0.29-2s0.53-1.09,1.03-1.6c0.41-0.42,0.93-0.73,1.54-0.94s1.24-0.32,1.88-0.32
				c0.68,0,1.31,0.1,1.89,0.3c0.58,0.2,1.08,0.52,1.52,0.95c0.44,0.44,0.77,0.96,0.99,1.56
				C148.94,307.92,149.05,308.6,149.05,309.36z M146.96,309.36c0-0.62-0.07-1.21-0.22-1.76s-0.37-0.99-0.66-1.3
				c-0.22-0.23-0.47-0.41-0.77-0.54c-0.29-0.13-0.62-0.2-0.98-0.2c-0.36,0-0.69,0.06-0.98,0.19s-0.55,0.31-0.78,0.55
				c-0.27,0.28-0.48,0.68-0.64,1.23c-0.16,0.54-0.24,1.16-0.24,1.83c0,0.63,0.07,1.21,0.2,1.73c0.13,0.53,0.34,0.95,0.62,1.27
				c0.23,0.26,0.5,0.46,0.8,0.61c0.31,0.14,0.64,0.21,1.01,0.21c0.38,0,0.72-0.07,1.03-0.21c0.3-0.14,0.57-0.34,0.8-0.61
				c0.28-0.34,0.48-0.76,0.62-1.28C146.9,310.56,146.96,309.99,146.96,309.36z"/>
			<path class="st12" d="M162.17,314.13c-0.12,0-0.28,0-0.46,0c-0.18,0-0.43,0-0.75,0c-1.43,0-2.57-0.09-3.42-0.27
				s-1.54-0.42-2.09-0.71c-0.75-0.39-1.34-0.88-1.76-1.46c-0.42-0.58-0.63-1.26-0.63-2.03c0-0.92,0.25-1.7,0.75-2.35
				c0.5-0.65,1.16-1.18,1.97-1.6c0.48-0.26,1.1-0.47,1.84-0.65c0.74-0.18,1.57-0.28,2.48-0.32l-0.02-4.18h2.07
				c0,0.2,0,1.25-0.01,3.15c-0.01,1.9-0.01,3.25-0.01,4.05c0,0.8,0,2.02,0.01,3.66C162.16,313.06,162.17,313.96,162.17,314.13z
				 M160.11,307.99c0-0.37,0-0.79,0-1.27c0-0.48,0-0.79,0-0.93c-0.55,0-1.09,0.06-1.64,0.18c-0.54,0.12-1.02,0.29-1.42,0.5
				c-0.58,0.31-1.04,0.73-1.38,1.24c-0.34,0.52-0.51,1.16-0.51,1.93c0,0.61,0.13,1.13,0.4,1.59c0.26,0.45,0.67,0.83,1.23,1.14
				c0.39,0.21,0.87,0.39,1.42,0.52c0.55,0.13,1.11,0.2,1.68,0.2c0.04,0,0.08,0,0.12,0s0.07,0,0.1,0c0-0.03,0-0.62,0-1.77
				S160.11,309.05,160.11,307.99z"/>
			<path class="st12" d="M184.03,309.36c0,0.69-0.11,1.36-0.32,2.02s-0.58,1.22-1.09,1.69c-0.41,0.37-0.89,0.66-1.43,0.86
				c-0.54,0.2-1.17,0.3-1.88,0.3c-0.67,0-1.3-0.11-1.88-0.32s-1.06-0.49-1.45-0.85c-0.53-0.49-0.89-1.05-1.1-1.69
				c-0.21-0.64-0.31-1.31-0.31-2.02c0-0.77,0.1-1.44,0.29-2s0.53-1.09,1.03-1.6c0.41-0.42,0.93-0.73,1.54-0.94s1.24-0.32,1.88-0.32
				c0.68,0,1.31,0.1,1.89,0.3c0.58,0.2,1.08,0.52,1.52,0.95c0.44,0.44,0.77,0.96,0.99,1.56
				C183.92,307.92,184.03,308.6,184.03,309.36z M181.94,309.36c0-0.62-0.07-1.21-0.22-1.76s-0.37-0.99-0.66-1.3
				c-0.22-0.23-0.47-0.41-0.77-0.54c-0.29-0.13-0.62-0.2-0.98-0.2c-0.36,0-0.69,0.06-0.98,0.19s-0.55,0.31-0.78,0.55
				c-0.27,0.28-0.48,0.68-0.64,1.23c-0.16,0.54-0.24,1.16-0.24,1.83c0,0.63,0.07,1.21,0.2,1.73c0.13,0.53,0.34,0.95,0.62,1.27
				c0.23,0.26,0.5,0.46,0.8,0.61c0.31,0.14,0.64,0.21,1.01,0.21c0.38,0,0.72-0.07,1.03-0.21c0.3-0.14,0.57-0.34,0.8-0.61
				c0.28-0.34,0.48-0.76,0.62-1.28C181.87,310.56,181.94,309.99,181.94,309.36z"/>
			<path class="st12" d="M196.06,305.72c-0.45,0.1-1.09,0.27-1.9,0.51c-0.82,0.23-1.84,0.58-3.06,1.03c0,0.17,0,0.48-0.01,0.93
				c0,0.45-0.01,0.96-0.01,1.55c0,0.73,0,1.58,0.01,2.54c0,0.96,0.01,1.54,0.01,1.74h-2.07c0-0.24,0-0.87,0.01-1.87
				c0.01-1,0.01-2.05,0.01-3.15c0-0.81,0-1.53-0.01-2.16c0-0.62-0.01-1.33-0.01-2.11h2.07l-0.02,1.48l0.03,0.01
				c1.17-0.55,2.12-0.95,2.86-1.2c0.74-0.25,1.25-0.42,1.52-0.5L196.06,305.72z"/>
			<path class="st12" d="M206.51,308.69c0,0.83,0,1.86,0,3.09c0,1.23,0,1.97,0,2.23c-0.29,0.03-0.63,0.06-1.02,0.08
				c-0.39,0.02-0.86,0.03-1.41,0.03c-0.75,0-1.44-0.05-2.05-0.14c-0.61-0.09-1.19-0.24-1.72-0.44c-0.57-0.21-1.03-0.51-1.38-0.89
				c-0.35-0.38-0.53-0.82-0.53-1.31c0-0.54,0.21-1.01,0.62-1.4c0.41-0.39,0.96-0.72,1.64-0.99c0.35-0.14,0.86-0.29,1.53-0.44
				c0.67-0.15,1.43-0.27,2.27-0.37c-0.02-0.53-0.12-0.95-0.3-1.26c-0.18-0.31-0.48-0.55-0.89-0.74c-0.39-0.18-0.85-0.29-1.38-0.34
				c-0.53-0.05-1.07-0.07-1.64-0.07c-0.16,0-0.28,0-0.38,0c-0.1,0-0.2,0-0.3,0l0.22-1.08c0.1-0.01,0.23-0.01,0.37-0.01
				c0.14,0,0.38,0,0.71,0c1.08,0,2,0.09,2.75,0.28s1.36,0.48,1.83,0.86c0.41,0.34,0.69,0.71,0.84,1.13
				C206.43,307.33,206.51,307.92,206.51,308.69z M204.46,311.15c0-0.34,0-0.72,0-1.15s0-0.7,0-0.84c-0.35,0.03-0.79,0.1-1.31,0.21
				c-0.53,0.11-0.98,0.24-1.36,0.39c-0.37,0.15-0.68,0.36-0.91,0.65c-0.24,0.29-0.36,0.59-0.36,0.91c0,0.33,0.11,0.62,0.32,0.88
				c0.21,0.26,0.47,0.45,0.77,0.57c0.3,0.12,0.63,0.21,0.99,0.28c0.36,0.06,0.74,0.1,1.14,0.1c0.1,0,0.21,0,0.33,0
				c0.12,0,0.25-0.01,0.39-0.02c0-0.1,0-0.34,0-0.73S204.46,311.58,204.46,311.15z"/>
			<path class="st12" d="M220.92,314h-2.07c0-0.2,0-0.75,0.01-1.68c0-0.92,0.01-1.59,0.01-2.01c0-0.59,0-1.16-0.01-1.71
				c-0.01-0.56-0.01-0.89-0.01-1.01c0-0.75-0.1-1.27-0.29-1.54c-0.19-0.28-0.6-0.42-1.21-0.42c-0.4,0-0.9,0.1-1.51,0.31
				c-0.6,0.21-1.13,0.42-1.59,0.65c0,1.49,0,2.53,0,3.14c0,0.73,0,1.58,0.01,2.57s0.01,1.55,0.01,1.7h-2.07c0-0.2,0-0.81,0.01-1.83
				c0.01-1.02,0.01-2.09,0.01-3.19c0-0.81,0-1.53-0.01-2.16c0-0.62-0.01-1.33-0.01-2.11h2.07l-0.02,0.8l0.03,0.01
				c0.6-0.28,1.24-0.51,1.93-0.72c0.69-0.21,1.35-0.31,1.96-0.31c0.9,0,1.58,0.21,2.03,0.62c0.46,0.41,0.69,0.95,0.69,1.62
				c0,0.64,0,1.23,0,1.77s0,0.97,0,1.31c0,0.42,0,1.17,0.01,2.26C220.92,313.17,220.92,313.81,220.92,314z"/>
			<path class="st12" d="M234.96,304.63c0,0.05,0,0.71-0.01,1.98c-0.01,1.27-0.01,2.2-0.01,2.8c0,0.64,0,1.29,0,1.97
				c0,0.68,0,1.35,0,2c0,0.93-0.21,1.72-0.62,2.37c-0.41,0.65-0.99,1.15-1.72,1.5c-0.64,0.31-1.37,0.54-2.18,0.7
				c-0.81,0.15-1.79,0.23-2.93,0.23l-0.22-1.08c0.97-0.01,1.73-0.06,2.26-0.15c0.54-0.09,0.98-0.2,1.32-0.34
				c0.7-0.28,1.21-0.64,1.53-1.09s0.48-1,0.5-1.66c-0.09,0-0.19,0-0.29-0.01c-0.1-0.01-0.2-0.01-0.29-0.02
				c-0.98-0.05-1.8-0.16-2.47-0.34c-0.67-0.18-1.2-0.38-1.6-0.58c-0.75-0.39-1.34-0.87-1.76-1.43c-0.42-0.56-0.63-1.23-0.63-1.99
				c0-0.88,0.25-1.63,0.75-2.28s1.16-1.17,1.98-1.6c0.46-0.24,1.11-0.47,1.95-0.67c0.83-0.2,1.85-0.3,3.06-0.3c0.24,0,0.51,0,0.81,0
				C234.68,304.63,234.88,304.63,234.96,304.63z M232.88,309.31c0-0.6,0-1.33,0-2.19c0-0.86,0-1.34,0-1.44c-0.04,0-0.1,0-0.16,0
				s-0.13,0-0.19,0.01c-0.55,0.03-1.05,0.11-1.52,0.22c-0.46,0.12-0.87,0.26-1.21,0.44c-0.56,0.28-1.01,0.69-1.35,1.22
				c-0.34,0.53-0.51,1.17-0.51,1.91c0,0.6,0.13,1.11,0.4,1.54s0.67,0.79,1.21,1.1c0.39,0.22,0.87,0.39,1.44,0.51
				c0.57,0.12,1.13,0.18,1.68,0.18c0.02,0,0.05,0,0.09,0c0.04,0,0.08,0,0.12,0c0-0.04,0-0.53,0-1.47S232.88,309.73,232.88,309.31z"
				/>
			<path class="st12" d="M248.75,308.99h-6.76c0,0.73,0.1,1.34,0.31,1.83s0.54,0.9,1.01,1.22c0.46,0.32,0.99,0.55,1.58,0.7
				c0.59,0.15,1.28,0.22,2.07,0.22c0.36,0,0.63,0,0.8-0.01c0.17-0.01,0.32-0.01,0.43-0.02l-0.25,1.08
				c-0.12,0.01-0.25,0.01-0.37,0.02s-0.41,0.01-0.87,0.01c-1.21-0.01-2.24-0.13-3.09-0.39c-0.86-0.25-1.55-0.6-2.09-1.05
				c-0.52-0.44-0.91-0.95-1.18-1.54c-0.27-0.58-0.41-1.19-0.41-1.82c0-0.74,0.09-1.37,0.26-1.9c0.17-0.53,0.52-1.04,1.02-1.55
				c0.44-0.45,0.95-0.77,1.52-0.98c0.57-0.21,1.2-0.31,1.89-0.31c0.64,0,1.21,0.09,1.72,0.26c0.5,0.17,0.94,0.43,1.3,0.77
				c0.39,0.4,0.67,0.88,0.84,1.45C248.65,307.55,248.74,308.22,248.75,308.99z M246.77,308.04c-0.1-0.87-0.35-1.5-0.73-1.91
				s-0.9-0.6-1.54-0.6c-0.64,0-1.17,0.19-1.59,0.58c-0.42,0.39-0.71,1.03-0.89,1.93H246.77z"/>
		</g>
	</g>
	<g>
		<g>
			<path class="st7" d="M117.99,150.08c0,0.73-0.35,1.37-1.05,1.92c-0.7,0.55-1.66,0.96-2.88,1.22c-0.65,0.15-1.41,0.26-2.27,0.34
				c-0.86,0.07-1.71,0.11-2.55,0.12l0.02,2.74h-4.1c0.01-0.44,0.02-1.05,0.03-1.82c0.01-0.77,0.02-1.93,0.02-3.47
				c0-0.55,0-1.22-0.01-2.01c-0.01-0.79-0.02-1.63-0.04-2.51c0.4,0,0.84-0.01,1.33-0.01s0.94,0,1.35,0c1.78,0,3.18,0.05,4.22,0.14
				c1.04,0.09,1.95,0.25,2.74,0.48c1.02,0.28,1.8,0.67,2.35,1.16S117.99,149.42,117.99,150.08z M113.78,150.23
				c0-0.38-0.14-0.7-0.43-0.98s-0.72-0.5-1.29-0.67c-0.39-0.12-0.8-0.19-1.24-0.22c-0.44-0.03-0.89-0.04-1.34-0.04
				c-0.05,0-0.11,0-0.19,0c-0.07,0-0.14,0-0.19,0c0,0.07,0,0.35-0.01,0.85c-0.01,0.5-0.01,0.91-0.01,1.22c0,0.3,0,0.67,0,1.1
				c0,0.43,0,0.67,0,0.71c0.06,0,0.13,0,0.21,0c0.08,0,0.14,0,0.19,0c0.4,0,0.85-0.02,1.33-0.06c0.48-0.04,0.88-0.11,1.21-0.21
				c0.58-0.17,1.02-0.38,1.32-0.65C113.63,151.02,113.78,150.67,113.78,150.23z"/>
			<path class="st7" d="M134.66,156.42c-0.31,0-1.12,0-2.43-0.01s-2.57-0.01-3.79-0.01c-0.97,0-1.92,0-2.85,0.01
				c-0.93,0-1.83,0.01-2.7,0.01c0.01-0.82,0.02-1.71,0.03-2.66c0.01-0.95,0.02-1.78,0.02-2.5c0-1.29-0.01-2.32-0.02-3.09
				c-0.01-0.77-0.02-1.3-0.03-1.58h4.11c-0.01,0.59-0.02,1.25-0.02,1.98c-0.01,0.73-0.01,1.41-0.01,2.04c0,0.94,0,1.78,0.01,2.52
				c0.01,0.74,0.01,1.17,0.01,1.28c0.37,0,0.79,0,1.27,0c0.48,0,0.91,0,1.29,0c1.09,0,2.15,0,3.2-0.01c1.05,0,1.69-0.01,1.93-0.01
				V156.42z"/>
			<path class="st7" d="M154.46,146.59c0,0.91-0.01,1.64-0.02,2.16c-0.01,0.53-0.02,1.01-0.02,1.45c0,0.56,0,1.04,0.01,1.44
				c0,0.4,0.01,0.75,0.01,1.04c0,0.67-0.19,1.25-0.58,1.73c-0.38,0.49-0.91,0.89-1.57,1.21c-0.75,0.36-1.57,0.62-2.44,0.78
				c-0.88,0.17-1.9,0.25-3.08,0.25c-1.3,0-2.4-0.09-3.29-0.28c-0.89-0.19-1.65-0.45-2.3-0.77c-0.69-0.34-1.2-0.75-1.56-1.23
				c-0.35-0.48-0.53-1.06-0.53-1.73c0-0.29,0-0.63,0.01-1.04c0-0.4,0.01-0.88,0.01-1.44c0-0.48-0.01-0.97-0.02-1.46
				s-0.02-1.2-0.02-2.12h4.1c-0.01,0.42-0.02,0.93-0.02,1.56s-0.01,1.32-0.01,2.1c0,0.38,0,0.75,0.01,1.13
				c0,0.37,0.01,0.76,0.01,1.16c0,0.71,0.33,1.25,0.98,1.62c0.66,0.37,1.54,0.55,2.64,0.55c1.18,0,2.08-0.18,2.69-0.54
				s0.92-0.9,0.92-1.64c0-0.4,0-0.79,0.01-1.19c0-0.39,0.01-0.76,0.01-1.1c0-0.79-0.01-1.49-0.02-2.12
				c-0.01-0.62-0.02-1.14-0.02-1.54H154.46z"/>
		</g>
	</g>
	<g>
		<g>
			<path class="st13" d="M190.9,150.55h-2.71c-0.14,0.42-0.27,0.8-0.39,1.15c-0.11,0.35-0.25,0.76-0.4,1.23h2.43v0.79h-2.69
				c-0.19,0.53-0.38,1.14-0.6,1.82c-0.21,0.68-0.33,1.05-0.35,1.1l-1.33-0.17c0.02-0.06,0.14-0.41,0.37-1.05
				c0.23-0.64,0.42-1.21,0.57-1.71h-2.03c-0.15,0.46-0.35,1.05-0.57,1.77c-0.23,0.71-0.35,1.1-0.37,1.16l-1.33-0.17
				c0.02-0.07,0.15-0.46,0.4-1.15c0.25-0.69,0.43-1.23,0.54-1.6h-2.41v-0.79h2.68c0.1-0.3,0.22-0.65,0.36-1.06
				c0.14-0.41,0.28-0.85,0.42-1.32h-2.4v-0.79h2.66c0.21-0.64,0.41-1.25,0.6-1.85c0.2-0.6,0.3-0.92,0.33-0.99l1.33,0.17
				c-0.03,0.09-0.15,0.42-0.35,1.01c-0.2,0.59-0.39,1.15-0.58,1.66h2.03c0.17-0.53,0.37-1.13,0.58-1.78
				c0.21-0.66,0.33-1.01,0.35-1.06l1.33,0.17c-0.03,0.09-0.15,0.42-0.35,1c-0.2,0.58-0.39,1.14-0.58,1.66h2.44V150.55z
				 M186.86,150.54h-2.03c-0.12,0.37-0.25,0.76-0.39,1.18c-0.13,0.42-0.27,0.82-0.4,1.22h2.03c0.14-0.42,0.29-0.83,0.42-1.24
				C186.64,151.29,186.76,150.91,186.86,150.54z"/>
			<path class="st13" d="M207.12,154.86c-0.65,0-1.25,0-1.79,0c-0.55,0-1.12,0-1.73,0c0,1.31,0,2.33,0.01,3.03
				c0.01,0.71,0.01,1.17,0.01,1.39h-2.04c0-0.27,0-0.78,0.01-1.53s0.01-1.72,0.01-2.9l-5.55,0.03l-0.85-1.05
				c1.67-1.63,3.19-3.13,4.57-4.53c1.38-1.39,2.19-2.2,2.44-2.43l1.42,0.46c-0.03,1.09-0.04,2.4-0.03,3.93
				c0.01,1.53,0.01,2.39,0.01,2.58c1.37,0,2.55-0.01,3.53-0.02V154.86z M201.63,149.35l-0.06,0l-4.6,4.48l0.02,0.02
				c0.15,0,0.41,0,0.77,0c0.36,0,0.88,0,1.58,0c0.29,0,0.63,0,1.04,0c0.4,0,0.81,0,1.22-0.01c0-0.72,0-1.51,0.01-2.35
				C201.61,150.65,201.62,149.93,201.63,149.35z"/>
			<path class="st13" d="M217.97,155.55c0,0.6-0.2,1.15-0.6,1.64c-0.4,0.5-0.97,0.9-1.72,1.23c-0.63,0.27-1.34,0.47-2.13,0.6
				c-0.79,0.13-1.66,0.2-2.61,0.2c-0.19,0-0.35,0-0.49,0c-0.14,0-0.27-0.01-0.39-0.01l-0.28-1.08c0.15,0,0.33,0,0.54,0
				c0.21,0,0.4,0,0.57,0c0.67,0,1.29-0.04,1.85-0.11c0.56-0.07,1.04-0.18,1.43-0.33c0.58-0.23,1.01-0.5,1.29-0.84
				c0.28-0.33,0.43-0.74,0.43-1.23c0-0.42-0.12-0.79-0.36-1.11s-0.65-0.55-1.23-0.7c-0.24-0.06-0.52-0.11-0.84-0.15
				c-0.32-0.04-0.67-0.05-1.03-0.05c-0.16,0-0.3,0-0.43,0.01c-0.13,0.01-0.25,0.01-0.34,0.02l-0.25-1.05
				c0.96-0.11,1.82-0.36,2.59-0.76c0.77-0.39,1.15-0.92,1.15-1.56c0-0.43-0.1-0.78-0.31-1.05c-0.21-0.26-0.49-0.49-0.85-0.67
				c-0.22-0.11-0.55-0.2-0.99-0.28s-0.94-0.12-1.49-0.12c-0.19,0-0.33,0-0.43,0c-0.1,0-0.24,0-0.4,0l0.36-1.15c0.05,0,0.13,0,0.22,0
				c0.1,0,0.19,0,0.29,0c0.72,0,1.4,0.04,2.04,0.11c0.64,0.08,1.22,0.22,1.75,0.44c0.57,0.23,1.03,0.54,1.38,0.94
				c0.36,0.39,0.53,0.89,0.53,1.49c0,0.81-0.27,1.43-0.8,1.88s-1.12,0.76-1.76,0.94v0.04c0.86,0.13,1.62,0.42,2.3,0.87
				C217.63,154.14,217.97,154.76,217.97,155.55z"/>
			<path class="st13" d="M232.06,153.2c0,1.08-0.48,1.93-1.45,2.55c-0.97,0.62-2.07,0.94-3.32,0.94c-1.4,0-2.55-0.3-3.44-0.91
				c-0.9-0.61-1.34-1.43-1.34-2.48c0-0.6,0.2-1.15,0.6-1.66c0.4-0.51,1-1.04,1.82-1.58v-0.02c-0.53-0.26-0.98-0.59-1.38-1.02
				c-0.39-0.42-0.59-0.97-0.59-1.65c0-0.97,0.44-1.73,1.33-2.3c0.88-0.56,1.89-0.85,3.01-0.85c1.24,0,2.28,0.26,3.13,0.78
				s1.27,1.28,1.27,2.28c0,0.62-0.22,1.21-0.67,1.76c-0.45,0.55-0.9,0.98-1.37,1.29v0.02c0.59,0.23,1.13,0.56,1.64,1
				C231.8,151.78,232.06,152.4,232.06,153.2z M229.96,153.33c0-0.45-0.11-0.81-0.33-1.11s-0.5-0.54-0.83-0.74
				c-0.27-0.17-0.64-0.33-1.12-0.5c-0.48-0.17-0.94-0.32-1.38-0.44c-0.35,0.24-0.72,0.59-1.11,1.06c-0.39,0.47-0.58,1.02-0.58,1.67
				c0,0.66,0.23,1.22,0.69,1.68c0.46,0.46,1.12,0.69,1.97,0.69c0.77,0,1.42-0.19,1.93-0.56C229.7,154.7,229.96,154.12,229.96,153.33
				z M229.58,147.57c0-0.73-0.19-1.3-0.56-1.7c-0.38-0.4-0.96-0.6-1.74-0.6c-0.7,0-1.25,0.17-1.64,0.52
				c-0.39,0.34-0.59,0.88-0.59,1.6c0,0.4,0.11,0.74,0.32,1.02s0.45,0.49,0.69,0.62c0.35,0.18,0.69,0.34,1.02,0.46s0.73,0.26,1.2,0.4
				c0.38-0.25,0.69-0.57,0.93-0.95C229.46,148.55,229.58,148.09,229.58,147.57z"/>
			<path class="st13" d="M241.04,156.41h-2.07c0-0.22,0-0.78,0.01-1.67s0.01-2.1,0.01-3.63c0-0.39,0-0.8-0.01-1.23
				c0-0.43-0.01-0.86-0.01-1.29l-0.05-0.02c-0.17,0.09-0.47,0.24-0.89,0.48c-0.42,0.23-0.9,0.5-1.44,0.79l-1.01-0.67
				c0.92-0.52,1.77-1,2.57-1.44c0.79-0.44,1.31-0.73,1.56-0.87l1.33,0.57c0,0.79,0,1.52-0.01,2.18c0,0.66-0.01,1.34-0.01,2.04
				c0,1.36,0,2.44,0.01,3.24S241.04,156.19,241.04,156.41z"/>
		</g>
	</g>
</g>
</svg>
