<?xml version="1.0" encoding="utf-8"?>
<!-- Generator: Adobe Illustrator 27.4.1, SVG Export Plug-In . SVG Version: 6.00 Build 0)  -->
<svg version="1.1" id="Layer_1" xmlns="http://www.w3.org/2000/svg" xmlns:xlink="http://www.w3.org/1999/xlink" x="0px" y="0px"
	 viewBox="0 0 359.83 345.96" style="enable-background:new 0 0 359.83 345.96;" xml:space="preserve">
<style type="text/css">
	.st0{fill:#F8A34D;}
	.st1{fill:#F15B2B;}
	.st2{fill:#EF4237;stroke:#FFFFFF;stroke-miterlimit:10;}
	.st3{fill:#F89521;}
	.st4{fill:none;stroke:#FFFFFF;stroke-miterlimit:10;}
	.st5{fill:#FFFFFF;}
	.st6{fill:#F89521;stroke:#FFFFFF;stroke-miterlimit:10;}
	.st7{fill:#FCF49D;}
	.st8{fill:#EF4237;}
	.st9{fill:#FCEE23;}
	.st10{fill:#FBF06E;}
	.st11{fill:#88D1CE;}
	.st12{fill:#3DB54A;}
	.st13{fill:#F26724;}
	.st14{fill:#FBB042;}
	.st15{fill:#804099;}
	.st16{fill:#29AAE1;}
	.st17{fill:none;stroke:#F2F2F2;stroke-miterlimit:10;}
	.st18{fill:#EC2227;}
	.st19{fill:none;}
	.st20{fill:#010101;}
	.st21{fill:#F68B21;}
	.st22{fill:#2E3690;stroke:#2E3690;stroke-miterlimit:10;}
	.st23{fill:#FFFFFF;stroke:#FFFFFF;stroke-miterlimit:10;}
	.st24{fill:#F68B21;stroke:#F68B21;stroke-miterlimit:10;}
	.st25{fill:#FCB918;}
</style>
<g>
	<ellipse class="st11" cx="179.92" cy="172.98" rx="134.41" ry="136.2"/>
	<g>
		<circle class="st1" cx="176.82" cy="163.47" r="76.89"/>
		<path class="st12" d="M178,159.93l35.8,62.64c16.84-10.32,29.22-27.68,32.51-48.73c0.7-4.48,0.94-8.92,0.78-13.29l-69.06-0.68
			L178,159.93z"/>
		<path class="st8" d="M178.58,159.79l-33.35-58.36c-18.63,9.93-32.54,28.16-36.12,50.59c-0.36,2.37-0.6,4.73-0.72,7.07
			L178.58,159.79z"/>
		<path class="st13" d="M208.68,102.97c-6.58-3.44-13.81-5.89-21.55-7.1c-15.52-2.42-30.64,0.48-43.52,7.34l33.35,58.36l0.06,0
			L208.68,102.97z"/>
		<path class="st14" d="M210.3,101.36l-31.65,58.6l69.06,0.68C246.82,135.44,232.27,112.84,210.3,101.36z"/>
		<path class="st15" d="M106.32,159.87c-1.38,26.9,12.81,51.68,35.39,64.55l34.55-63.85L106.32,159.87z"/>
		<path class="st16" d="M212.48,222.36l-35.8-62.64l-34.54,63.96c7.01,3.95,14.81,6.77,23.2,8.13
			C182.35,234.45,198.87,230.7,212.48,222.36z"/>
		<circle class="st17" cx="176.82" cy="163.47" r="70.25"/>
		<line class="st17" x1="106.65" y1="159.96" x2="247.03" y2="161.35"/>
		<line class="st17" x1="212.9" y1="223.75" x2="143.21" y2="101.79"/>
		<line class="st17" x1="142.32" y1="224.68" x2="209.08" y2="101.07"/>
		<polygon class="st18" points="178.58,159.97 178.62,160.02 178.65,159.97 		"/>
	</g>
	<path id="SVGID_x5F_1_x5F_" class="st19" d="M173.6,70.89c50.94-2.08,94.05,40.65,96.28,95.44s-37.25,100.88-88.19,102.96
		s-94.05-40.65-96.28-95.44C83.18,119.07,122.66,72.97,173.6,70.89z"/>
	<text>	<textPath  xlink:href="#SVGID_x5F_1_x5F_" startOffset="68.021%">
<tspan  class="st20" style="font-family:'AnisetteStd-Regular'; font-size:36.2649px; letter-spacing:185.96;">SUNSHINE     </tspan><tspan  class="st20" style="font-family:'AnisetteStd-Regular'; font-size:36.2649px; letter-spacing:69.73;">    </tspan>	</textPath>
</text>
	<path id="SVGID_x5F_00000074423534962224660290000007819126220845882302_x5F_" class="st19" d="M64.04,169.78
		c0,0-8.66,92.78,107.85,105.59c0,0,108.38-0.15,115.63-89.37"/>
	<text>	<textPath  xlink:href="#SVGID_x5F_00000074423534962224660290000007819126220845882302_x5F_" startOffset="18.164%">
<tspan  class="st5" style="font-family:'AnisetteStd-Light'; font-size:34.8527px; letter-spacing:174.07;">oranges</tspan>	</textPath>
</text>
	<g>
		<g>
			<path class="st20" d="M157.23,287.4c-0.04,0.05-0.83,1.08-2.48,3.01c-1.65,1.93-3.31,3.76-4.95,5.49
				c-0.45-0.13-0.68-0.19-1.13-0.33c-0.51-2.61-0.92-5.08-1.26-7.41c-0.34-2.33-0.46-3.54-0.47-3.65c0.55-0.06,0.83-0.09,1.38-0.16
				c0,0.11,0.11,1.27,0.41,3.49c0.3,2.22,0.66,4.32,1.07,6.3c0.01,0,0.01,0,0.02,0c1.42-1.5,2.86-3.12,4.3-4.84
				c1.44-1.72,2.14-2.64,2.18-2.69C156.66,286.93,156.84,287.09,157.23,287.4z"/>
			<path class="st20" d="M165.12,294.44c-0.17,1.26-0.3,2.28-0.41,3.07s-0.17,1.22-0.18,1.28c-0.06,0-0.33-0.02-0.82-0.05
				c-0.49-0.03-1.11-0.11-1.87-0.23c-0.47-0.08-0.95-0.19-1.41-0.35c-0.46-0.16-0.86-0.34-1.18-0.54c-0.42-0.27-0.75-0.6-0.97-0.97
				c-0.22-0.37-0.28-0.79-0.19-1.24c0.1-0.48,0.34-0.86,0.74-1.14c0.39-0.29,0.9-0.48,1.51-0.59c0.38-0.07,0.88-0.11,1.5-0.12
				c0.62-0.01,1.31,0.02,2.09,0.07c0.02-0.4-0.04-0.74-0.18-1.02c-0.14-0.28-0.38-0.51-0.7-0.7c-0.22-0.13-0.48-0.23-0.77-0.32
				c-0.28-0.09-0.62-0.16-1.01-0.23c-0.24-0.04-0.45-0.07-0.62-0.1c-0.17-0.02-0.41-0.05-0.7-0.09c0.13-0.39,0.19-0.59,0.32-0.98
				c0.08,0.01,0.24,0.03,0.48,0.06c0.24,0.03,0.56,0.08,0.98,0.16c0.63,0.11,1.18,0.26,1.66,0.46c0.48,0.2,0.86,0.46,1.15,0.79
				c0.27,0.31,0.46,0.66,0.57,1.07C165.21,293.13,165.22,293.7,165.12,294.44z M163.58,296.09c0.03-0.17,0.06-0.39,0.09-0.66
				c0.04-0.26,0.08-0.57,0.12-0.91c-0.25-0.02-0.68-0.04-1.31-0.06c-0.63-0.02-1.16,0.01-1.6,0.08c-0.33,0.05-0.64,0.16-0.92,0.33
				c-0.28,0.17-0.45,0.41-0.51,0.72c-0.06,0.34-0.01,0.64,0.16,0.88s0.43,0.46,0.78,0.63c0.26,0.13,0.57,0.25,0.9,0.34
				c0.33,0.09,0.69,0.17,1.07,0.23c0.12,0.02,0.26,0.04,0.42,0.06c0.17,0.02,0.34,0.04,0.53,0.06c0.01-0.04,0.03-0.2,0.08-0.5
				C163.45,297,163.51,296.59,163.58,296.09z"/>
			<path class="st20" d="M170.93,299.41c-0.55-0.04-0.83-0.06-1.38-0.11c0.01-0.06,0.08-0.81,0.21-2.23
				c0.13-1.43,0.23-2.62,0.31-3.56c0.05-0.61,0.11-1.37,0.19-2.3c0.07-0.93,0.15-1.96,0.23-3.12c0.49,0.04,0.74,0.06,1.23,0.09
				c-0.07,0.79-0.14,1.69-0.21,2.73c-0.08,1.03-0.14,1.9-0.19,2.61c-0.11,1.55-0.2,2.9-0.27,4.06
				C170.97,298.75,170.93,299.35,170.93,299.41z"/>
			<path class="st20" d="M182.66,295.4c-2.43,0.11-3.64,0.12-6.07,0.09c0,0.54,0.11,1.04,0.36,1.5c0.24,0.45,0.63,0.83,1.15,1.13
				c0.33,0.19,0.71,0.33,1.14,0.42c0.43,0.09,0.94,0.13,1.54,0.11c0.33-0.01,0.63-0.03,0.9-0.05c0.27-0.02,0.44-0.04,0.51-0.05
				c-0.05,0.41-0.07,0.62-0.12,1.03c-0.05,0.01-0.2,0.02-0.46,0.04c-0.26,0.02-0.57,0.04-0.93,0.04c-0.93,0.02-1.75-0.08-2.44-0.29
				c-0.69-0.21-1.25-0.51-1.68-0.89c-0.37-0.32-0.68-0.72-0.93-1.22c-0.25-0.49-0.36-1.03-0.34-1.63c0.02-0.58,0.13-1.1,0.33-1.57
				c0.2-0.47,0.49-0.9,0.87-1.29c0.33-0.34,0.73-0.6,1.2-0.79c0.47-0.19,0.96-0.28,1.47-0.29c0.5,0,0.95,0.06,1.34,0.19
				c0.39,0.14,0.74,0.34,1.03,0.62c0.33,0.31,0.59,0.71,0.78,1.18C182.51,294.16,182.62,294.73,182.66,295.4z M181.33,294.59
				c-0.11-0.63-0.36-1.12-0.74-1.47c-0.38-0.35-0.88-0.52-1.49-0.52c-0.61,0.01-1.12,0.19-1.53,0.55c-0.41,0.36-0.7,0.85-0.88,1.47
				C178.55,294.66,179.48,294.65,181.33,294.59z"/>
			<path class="st20" d="M194.15,298.44c-0.55,0.08-0.82,0.12-1.37,0.2c-0.01-0.14-0.07-0.61-0.17-1.41c-0.1-0.8-0.17-1.29-0.2-1.48
				c-0.04-0.26-0.09-0.65-0.17-1.16c-0.07-0.51-0.13-0.89-0.17-1.12c-0.1-0.58-0.28-0.98-0.53-1.2c-0.26-0.22-0.66-0.3-1.2-0.23
				c-0.33,0.04-0.73,0.18-1.2,0.42c-0.47,0.24-0.94,0.52-1.42,0.86c0.01,0.06,0.03,0.36,0.08,0.91c0.05,0.55,0.09,1.05,0.14,1.5
				c0.06,0.59,0.13,1.3,0.23,2.13c0.1,0.83,0.15,1.27,0.15,1.31c-0.55,0.05-0.83,0.08-1.38,0.12c0-0.04-0.02-0.35-0.06-0.94
				c-0.04-0.59-0.11-1.47-0.2-2.63c-0.04-0.53-0.1-1.16-0.16-1.88c-0.06-0.72-0.14-1.48-0.22-2.29c0.5-0.04,0.76-0.06,1.26-0.11
				c0.03,0.35,0.05,0.53,0.08,0.88c0,0,0.01,0.01,0.01,0.01c0.72-0.48,1.32-0.83,1.8-1.05c0.48-0.22,0.89-0.35,1.22-0.39
				c0.69-0.09,1.26,0.04,1.74,0.38c0.48,0.35,0.77,0.87,0.88,1.58c0.1,0.64,0.18,1.19,0.24,1.65c0.06,0.46,0.12,0.84,0.16,1.13
				c0.07,0.46,0.17,1.04,0.29,1.72C194.08,298.05,194.14,298.41,194.15,298.44z"/>
			<path class="st20" d="M204.48,295.28c0.06,0.41,0.1,0.61,0.16,1.02c-0.05,0.01-0.12,0.03-0.22,0.06
				c-0.1,0.03-0.18,0.05-0.25,0.06c-0.73,0.19-1.43,0.3-2.1,0.32c-0.67,0.03-1.28-0.02-1.84-0.15c-0.76-0.18-1.38-0.51-1.88-0.98
				c-0.49-0.47-0.8-1.04-0.93-1.72c-0.12-0.6-0.05-1.19,0.18-1.76c0.24-0.57,0.59-1.07,1.05-1.51c0.42-0.39,0.94-0.74,1.57-1.05
				c0.63-0.31,1.29-0.55,2-0.73c0.06-0.01,0.12-0.03,0.18-0.05c0.06-0.02,0.11-0.03,0.15-0.04c0.13,0.39,0.19,0.59,0.32,0.98
				c-0.04,0.01-0.08,0.02-0.12,0.03c-0.04,0.01-0.09,0.02-0.12,0.03c-0.59,0.15-1.09,0.31-1.49,0.48c-0.4,0.17-0.78,0.38-1.15,0.62
				c-0.48,0.32-0.84,0.73-1.06,1.23c-0.22,0.5-0.29,0.99-0.19,1.48c0.12,0.58,0.38,1.05,0.76,1.38c0.39,0.33,0.87,0.55,1.42,0.65
				c0.43,0.08,0.91,0.1,1.42,0.06c0.51-0.04,1.05-0.14,1.6-0.28c0.09-0.02,0.19-0.05,0.3-0.08
				C204.36,295.31,204.44,295.3,204.48,295.28z"/>
			<path class="st20" d="M207.37,285.85c-0.54,0.17-0.81,0.26-1.35,0.42c-0.15-0.5-0.23-0.76-0.38-1.26
				c0.53-0.16,0.8-0.25,1.33-0.42C207.12,285.1,207.21,285.35,207.37,285.85z M210.12,294.68c-0.53,0.17-0.8,0.25-1.33,0.42
				c-0.02-0.08-0.16-0.57-0.42-1.45c-0.26-0.89-0.48-1.62-0.66-2.2c-0.15-0.5-0.32-1.06-0.51-1.66c-0.19-0.6-0.41-1.31-0.68-2.12
				c0.49-0.15,0.74-0.23,1.23-0.39c0.21,0.7,0.41,1.37,0.6,1.98c0.19,0.61,0.36,1.16,0.51,1.63c0.36,1.14,0.66,2.04,0.9,2.73
				C209.99,294.31,210.11,294.66,210.12,294.68z"/>
			<path class="st20" d="M218.9,286.67c0.51,1.16,0.93,2.1,1.25,2.84c0.32,0.73,0.49,1.13,0.51,1.18c-0.05,0.03-0.3,0.16-0.73,0.39
				s-1.02,0.49-1.73,0.79c-0.45,0.19-0.92,0.33-1.4,0.44c-0.48,0.11-0.92,0.16-1.3,0.15c-0.51-0.01-0.96-0.12-1.34-0.33
				c-0.38-0.2-0.65-0.52-0.81-0.96c-0.17-0.46-0.15-0.91,0.04-1.36c0.19-0.45,0.52-0.88,0.99-1.3c0.29-0.26,0.71-0.55,1.23-0.89
				c0.53-0.33,1.14-0.68,1.84-1.04c-0.19-0.35-0.42-0.61-0.69-0.77c-0.27-0.16-0.59-0.24-0.97-0.22c-0.26,0.01-0.54,0.05-0.83,0.13
				c-0.29,0.08-0.62,0.19-0.99,0.33c-0.23,0.09-0.43,0.17-0.58,0.24c-0.16,0.07-0.38,0.17-0.65,0.29c-0.09-0.4-0.14-0.6-0.24-1
				c0.07-0.03,0.22-0.1,0.45-0.2c0.22-0.1,0.53-0.22,0.92-0.38c0.6-0.24,1.16-0.4,1.67-0.48c0.52-0.08,0.99-0.06,1.41,0.07
				c0.39,0.12,0.75,0.32,1.05,0.62C218.3,285.5,218.6,285.99,218.9,286.67z M218.44,288.89c-0.07-0.16-0.16-0.36-0.26-0.61
				c-0.1-0.24-0.23-0.52-0.37-0.84c-0.23,0.11-0.61,0.32-1.16,0.63c-0.55,0.31-1,0.62-1.34,0.91c-0.25,0.22-0.47,0.47-0.62,0.76
				c-0.16,0.29-0.18,0.58-0.07,0.88c0.12,0.32,0.32,0.55,0.6,0.67c0.28,0.12,0.61,0.17,1,0.13c0.3-0.03,0.62-0.08,0.95-0.18
				c0.34-0.1,0.69-0.22,1.05-0.37c0.11-0.05,0.24-0.1,0.39-0.18c0.16-0.07,0.32-0.14,0.49-0.22c-0.01-0.03-0.08-0.19-0.2-0.47
				C218.8,289.73,218.64,289.36,218.44,288.89z"/>
		</g>
	</g>
	<g>
		<g>
			<path class="st8" d="M71.47,197.7c0,0.69-0.22,1.31-0.67,1.87c-0.45,0.56-1.04,0.93-1.79,1.13c-0.32,0.08-0.67,0.15-1.05,0.18
				s-0.8,0.06-1.27,0.06l0.01,3h-1.17c0-0.28,0.01-0.81,0.02-1.58c0.01-0.77,0.01-1.95,0.01-3.56c0-0.51,0-1.14-0.01-1.88
				s-0.01-1.57-0.03-2.47c0.2,0,0.4-0.01,0.6-0.01s0.35,0,0.48,0c0.82,0,1.51,0.05,2.08,0.16c0.57,0.1,1.05,0.28,1.45,0.53
				c0.43,0.27,0.76,0.62,0.98,1.05C71.36,196.62,71.47,197.12,71.47,197.7z M70.27,197.7c0-0.49-0.11-0.9-0.33-1.24
				c-0.22-0.34-0.56-0.61-1.02-0.81c-0.28-0.12-0.59-0.2-0.92-0.23c-0.33-0.03-0.67-0.05-1.02-0.05c-0.04,0-0.08,0-0.13,0
				c-0.04,0-0.09,0-0.13,0c0,0.05,0,0.41-0.01,1.06s-0.01,1.18-0.01,1.56c0,0.35,0,0.76,0,1.24c0,0.48,0,0.75,0,0.81
				c0.04,0,0.09,0,0.15,0s0.1,0,0.13,0c0.32,0,0.65-0.02,1.01-0.06c0.36-0.04,0.66-0.12,0.92-0.23c0.44-0.19,0.78-0.45,1.02-0.79
				C70.15,198.62,70.27,198.2,70.27,197.7z"/>
			<path class="st8" d="M80.27,203.92c-0.06,0-0.36,0-0.9-0.01c-0.54,0-1.23-0.01-2.07-0.01c-0.55,0-1.08,0-1.58,0.01
				c-0.5,0-0.92,0.01-1.26,0.01c0.01-0.81,0.02-1.63,0.02-2.47c0.01-0.83,0.01-1.65,0.01-2.46c0-1.34,0-2.36-0.01-3.07
				c-0.01-0.7-0.02-1.2-0.02-1.48h1.17c-0.01,0.61-0.02,1.31-0.02,2.11c0,0.8-0.01,1.45-0.01,1.96c0,1.24,0,2.28,0.01,3.11
				c0,0.83,0.01,1.27,0.01,1.32c0.19,0,0.43,0,0.7,0c0.27,0,0.52,0,0.74,0c0.84,0,1.58,0,2.21-0.01s0.96-0.01,1-0.01V203.92z"/>
			<path class="st8" d="M90.74,194.45c0,0.91,0,1.66-0.01,2.25c-0.01,0.59-0.01,1.11-0.01,1.55c0,0.54,0,1,0,1.38
				c0,0.38,0,0.71,0,0.99c0,0.55-0.08,1.03-0.24,1.45s-0.41,0.78-0.74,1.09s-0.74,0.56-1.22,0.73c-0.48,0.18-1.04,0.27-1.67,0.27
				s-1.19-0.09-1.67-0.26c-0.48-0.17-0.89-0.42-1.23-0.74c-0.33-0.31-0.58-0.68-0.74-1.09c-0.16-0.42-0.24-0.9-0.24-1.45
				c0-0.28,0-0.61,0-0.99c0-0.38,0-0.84,0-1.38c0-0.44,0-0.96-0.01-1.55s-0.01-1.34-0.01-2.25h1.17c0,0.12-0.01,0.52-0.02,1.21
				c-0.01,0.69-0.01,1.59-0.01,2.71c0,0.34,0,0.69,0,1.06c0,0.36,0,0.74,0,1.12c0,0.86,0.25,1.52,0.74,1.97
				c0.5,0.45,1.17,0.67,2.01,0.67c0.92,0,1.6-0.21,2.06-0.64s0.69-1.09,0.69-2c0-0.38,0-0.76,0-1.12c0-0.36,0-0.72,0-1.06
				c0-1.12,0-2.04-0.01-2.75c-0.01-0.71-0.01-1.1-0.01-1.17H90.74z"/>
		</g>
	</g>
	<g>
		<g>
			<path class="st8" d="M262.38,197.25h-1.88c-0.1,0.31-0.2,0.62-0.29,0.92c-0.1,0.3-0.19,0.56-0.27,0.79h1.66v0.74h-1.89
				c-0.16,0.47-0.31,0.94-0.46,1.41c-0.15,0.47-0.23,0.73-0.25,0.78l-0.64-0.25c0.02-0.06,0.09-0.27,0.22-0.64
				c0.12-0.37,0.27-0.8,0.43-1.3h-1.58c-0.16,0.47-0.31,0.94-0.46,1.41c-0.15,0.47-0.23,0.73-0.25,0.79l-0.64-0.25
				c0.02-0.05,0.09-0.26,0.22-0.64c0.13-0.37,0.27-0.81,0.43-1.3h-1.64v-0.74h1.88c0.11-0.34,0.21-0.63,0.29-0.86
				c0.08-0.23,0.17-0.51,0.27-0.85h-1.64v-0.74h1.88c0.15-0.46,0.3-0.92,0.45-1.37c0.15-0.45,0.23-0.7,0.24-0.75l0.64,0.23
				c-0.01,0.04-0.08,0.25-0.21,0.61c-0.12,0.37-0.26,0.79-0.42,1.28h1.59c0.15-0.46,0.3-0.92,0.45-1.37
				c0.15-0.45,0.23-0.7,0.24-0.75l0.64,0.23c-0.01,0.03-0.08,0.23-0.2,0.6c-0.12,0.37-0.27,0.8-0.43,1.29h1.64V197.25z
				 M259.8,197.25h-1.59c-0.1,0.31-0.2,0.62-0.29,0.92c-0.1,0.3-0.19,0.56-0.27,0.79h1.59c0.11-0.34,0.21-0.63,0.29-0.86
				C259.61,197.87,259.7,197.58,259.8,197.25z"/>
			<path class="st8" d="M272.87,200.57c-0.57-0.01-1.05-0.02-1.46-0.02c-0.41-0.01-0.78-0.01-1.12-0.01c-0.01,0.92-0.01,1.68,0,2.27
				s0.01,0.97,0.02,1.12h-1.09c0-0.15,0-0.54,0.01-1.18s0.02-1.37,0.02-2.21l-4.05,0.03l-0.45-0.84c1.2-1.32,2.27-2.51,3.2-3.59
				c0.93-1.08,1.45-1.67,1.55-1.79l0.83,0.49c-0.02,0.81-0.03,1.8-0.03,2.97s0,1.79,0,1.87c0.23,0,0.53,0,0.9-0.01
				c0.37,0,0.93-0.01,1.68-0.02V200.57z M269.27,195.84l-0.01,0l-3.31,3.82l0.01,0.01c0.05,0,0.2,0,0.44,0c0.24,0,0.61,0,1.09,0
				c0.18,0,0.43,0,0.74,0s0.65,0,1.02-0.01c0-0.67,0-1.27,0-1.81C269.25,197.32,269.26,196.64,269.27,195.84z"/>
			<path class="st8" d="M281.91,198.15c0,0.56-0.1,1.08-0.29,1.56c-0.19,0.48-0.46,0.88-0.8,1.21c-0.34,0.33-0.73,0.58-1.18,0.75
				c-0.45,0.17-0.93,0.26-1.45,0.26c-0.51,0-1-0.09-1.44-0.26c-0.45-0.17-0.83-0.42-1.16-0.75c-0.35-0.35-0.62-0.77-0.81-1.24
				s-0.28-0.99-0.28-1.55c0-0.55,0.09-1.04,0.26-1.49c0.17-0.45,0.42-0.84,0.74-1.19c0.31-0.33,0.7-0.6,1.18-0.8
				c0.47-0.2,0.98-0.3,1.53-0.3c0.55,0,1.06,0.09,1.52,0.28c0.46,0.19,0.84,0.45,1.15,0.77c0.34,0.35,0.59,0.75,0.77,1.2
				C281.82,197.07,281.91,197.58,281.91,198.15z M280.76,198.22c0-0.45-0.07-0.88-0.21-1.26c-0.14-0.39-0.34-0.72-0.6-0.98
				c-0.22-0.23-0.47-0.4-0.76-0.52s-0.62-0.18-0.98-0.18c-0.4,0-0.74,0.07-1.03,0.2c-0.28,0.13-0.52,0.3-0.72,0.5
				c-0.25,0.25-0.45,0.56-0.6,0.96c-0.15,0.39-0.22,0.8-0.22,1.21c0,0.45,0.07,0.87,0.21,1.25c0.14,0.38,0.36,0.71,0.65,1
				c0.21,0.2,0.45,0.36,0.74,0.48c0.28,0.12,0.59,0.18,0.93,0.18c0.35,0,0.67-0.06,0.96-0.17c0.29-0.12,0.54-0.28,0.75-0.49
				c0.28-0.26,0.49-0.58,0.64-0.95C280.69,199.05,280.76,198.65,280.76,198.22z"/>
			<path class="st8" d="M287.43,201.72h-1.1c0-0.15,0.01-0.58,0.03-1.28c0.01-0.7,0.02-1.67,0.02-2.91c0-0.22,0-0.53,0-0.94
				c0-0.41-0.01-0.73-0.01-0.96l-0.02-0.01c-0.21,0.12-0.51,0.3-0.91,0.55c-0.4,0.25-0.83,0.52-1.29,0.8l-0.41-0.62
				c0.57-0.4,1.17-0.82,1.8-1.26c0.64-0.44,1-0.69,1.09-0.75l0.81,0.56c-0.01,0.68-0.02,1.39-0.02,2.1c0,0.72-0.01,1.14-0.01,1.27
				c0,0.56,0,1.23,0.01,2.03C287.42,201.09,287.42,201.56,287.43,201.72z"/>
			<path class="st8" d="M298.1,200.57c-0.57-0.01-1.05-0.02-1.46-0.02c-0.41-0.01-0.78-0.01-1.12-0.01c-0.01,0.92-0.01,1.68,0,2.27
				s0.01,0.97,0.02,1.12h-1.09c0-0.15,0-0.54,0.01-1.18s0.02-1.37,0.02-2.21l-4.05,0.03l-0.45-0.84c1.2-1.32,2.27-2.51,3.2-3.59
				c0.93-1.08,1.45-1.67,1.55-1.79l0.83,0.49c-0.02,0.81-0.03,1.8-0.03,2.97s0,1.79,0,1.87c0.23,0,0.53,0,0.9-0.01
				c0.37,0,0.93-0.01,1.68-0.02V200.57z M294.5,195.84l-0.01,0l-3.31,3.82l0.01,0.01c0.05,0,0.2,0,0.44,0c0.24,0,0.61,0,1.09,0
				c0.18,0,0.43,0,0.74,0s0.65,0,1.02-0.01c0-0.67,0-1.27,0-1.81C294.48,197.32,294.49,196.64,294.5,195.84z"/>
		</g>
	</g>
</g>
</svg>
