<?xml version="1.0" encoding="utf-8"?>
<!-- Generator: Adobe Illustrator 27.4.1, SVG Export Plug-In . SVG Version: 6.00 Build 0)  -->
<svg version="1.1" id="Layer_1" xmlns="http://www.w3.org/2000/svg" xmlns:xlink="http://www.w3.org/1999/xlink" x="0px" y="0px"
	 viewBox="0 0 360 359.83" style="enable-background:new 0 0 360 359.83;" xml:space="preserve">
<style type="text/css">
	.st0{fill:#F8A34D;}
	.st1{fill:#F15B2B;}
	.st2{fill:#EF4237;stroke:#FFFFFF;stroke-miterlimit:10;}
	.st3{fill:#F89521;}
	.st4{fill:none;stroke:#FFFFFF;stroke-miterlimit:10;}
	.st5{fill:#FFFFFF;}
	.st6{fill:#F89521;stroke:#FFFFFF;stroke-miterlimit:10;}
	.st7{fill:#FCF49D;}
	.st8{fill:#EF4237;}
	.st9{fill:#FCEE23;}
	.st10{fill:#FBF06E;}
	.st11{fill:#88D1CE;}
	.st12{fill:#3DB54A;}
	.st13{fill:#F26724;}
	.st14{fill:#FBB042;}
	.st15{fill:#804099;}
	.st16{fill:#29AAE1;}
	.st17{fill:none;stroke:#F2F2F2;stroke-miterlimit:10;}
	.st18{fill:#EC2227;}
	.st19{fill:#010101;}
	.st20{fill:#F68B21;}
	.st21{fill:#2E3690;stroke:#2E3690;stroke-miterlimit:10;}
	.st22{fill:#FFFFFF;stroke:#FFFFFF;stroke-miterlimit:10;}
	.st23{fill:#F68B21;stroke:#F68B21;stroke-miterlimit:10;}
	.st24{fill:#FCB918;}
	.st25{fill:#231F20;}
	.st26{font-family:'AnisetteStd-Regular';}
	.st27{font-size:9.5388px;}
	.st28{font-family:'AnisetteStd-Light';}
	.st29{font-size:12.7184px;}
	.st30{letter-spacing:3;}
	.st31{letter-spacing:2;}
	.st32{font-size:17.5754px;}
</style>
<g>
	<circle class="st20" cx="180" cy="187.59" r="119.94"/>
	<path class="st21" d="M126.69,187.41c0-30.14,24.44-54.58,54.58-54.58s54.58,24.44,54.58,54.58c0,0.28-0.04,0.56-0.04,0.84
		l58.26-0.56c0-0.09,0.01-0.18,0.01-0.28c0-62.13-50.36-112.49-112.49-112.49c-62.13,0-112.49,50.36-112.49,112.49
		c0,0.82,0.04,1.63,0.06,2.44l57.63-0.55C126.77,188.66,126.69,188.05,126.69,187.41z"/>
	<path class="st22" d="M235.81,188.25c-0.45,29.75-24.68,53.74-54.54,53.74c-29.51,0-53.48-23.43-54.49-52.69l-57.63,0.55
		c1.3,61,51.12,110.05,112.43,110.05c62.03,0,112.33-50.21,112.48-112.21L235.81,188.25z"/>
	<path class="st23" d="M181.28,241.99c29.86,0,54.09-23.99,54.54-53.74l-109.02,1.05C127.79,218.56,151.77,241.99,181.28,241.99z"/>
	<path class="st22" d="M181.3,132.38c-29.86,0-54.09,23.99-54.54,53.74l109.02-1.05C234.78,155.82,210.81,132.38,181.3,132.38z"/>
	<g>
		<g>
			<path class="st5" d="M106.35,147.24c0.44,0.39,0.79,0.93,1.06,1.6c0.27,0.68,0.42,1.46,0.46,2.34c0.03,0.88-0.12,1.82-0.44,2.82
				c-0.32,1-0.87,2-1.65,3.03c-0.77,1.02-1.69,1.92-2.78,2.73c-1.09,0.8-2.24,1.36-3.46,1.66c0.36,0.71,0.76,1.26,1.19,1.67
				c-0.36,0.57-0.54,0.85-0.89,1.43c-2.2-1.35-3.3-2.02-5.5-3.37c0.38-0.62,0.57-0.92,0.95-1.53c0.96,0.22,1.93,0.32,2.92,0.3
				c0.99-0.02,2-0.28,3.04-0.76c1.04-0.48,1.97-1.29,2.81-2.42c0.73-0.99,1.12-1.92,1.18-2.82c0.05-0.91-0.22-1.61-0.83-2.11
				c-0.34-0.28-0.72-0.44-1.13-0.46c-0.41-0.03-0.86,0.06-1.34,0.25c-0.49,0.19-1.09,0.51-1.81,0.96c-0.72,0.45-1.52,0.99-2.39,1.64
				c-1.36,0.98-2.55,1.77-3.59,2.35c-1.04,0.57-1.91,0.97-2.64,1.16c-0.73,0.19-1.35,0.26-1.85,0.2c-0.51-0.06-0.96-0.21-1.37-0.46
				c-0.72-0.44-1.25-1.17-1.58-2.2c-0.32-1.03-0.34-2.26-0.02-3.69c0.32-1.43,0.99-2.88,2.03-4.33c0.8-1.1,1.73-2.02,2.78-2.74
				c1.05-0.72,2.13-1.2,3.21-1.44c-0.14-0.44-0.42-0.97-0.83-1.58c0.5-0.61,0.76-0.91,1.27-1.51c1.59,1.38,2.39,2.06,3.98,3.44
				c-0.49,0.57-0.73,0.86-1.21,1.44c-3.05-0.8-5.72,0.19-7.78,3.03c-0.75,1.03-1.15,2-1.23,2.89c-0.07,0.89,0.18,1.52,0.76,1.91
				c0.45,0.31,0.98,0.37,1.58,0.21c0.6-0.16,1.23-0.47,1.9-0.92c0.67-0.45,1.71-1.21,3.13-2.19c1.72-1.2,3.13-2.03,4.2-2.56
				c1.07-0.54,2.12-0.84,3.16-0.91C104.67,146.23,105.57,146.55,106.35,147.24z"/>
			<path class="st5" d="M124.18,116.99c-1.02,0.6-1.7,1.13-2.04,1.57c-0.34,0.44-0.45,0.84-0.36,1.21c0.09,0.37,0.34,0.87,0.75,1.51
				c1.49,2.35,2.23,3.53,3.72,5.88c0.69,1.08,1.15,1.93,1.41,2.53c0.25,0.6,0.36,1.31,0.32,2.12c-0.04,1.54-0.55,2.92-1.52,4.19
				c-0.97,1.27-2,2.33-3.12,3.19c-0.82,0.64-1.73,1.22-2.73,1.75c-1,0.54-2.03,0.93-3.1,1.19c-1.07,0.26-2.08,0.26-3.04,0
				c-0.52-0.15-1-0.34-1.43-0.57c-0.43-0.23-0.8-0.49-1.11-0.77c-0.31-0.28-0.69-0.66-1.15-1.15c-2.17-2.28-3.26-3.42-5.43-5.69
				c-0.56-0.59-1.12-0.85-1.69-0.77c-0.57,0.08-1.47,0.72-2.68,1.96c-0.36-0.36-0.55-0.54-0.91-0.9c3.95-4.04,6.03-5.91,10.35-9.35
				c0.32,0.4,0.48,0.6,0.8,1c-0.91,0.72-1.52,1.34-1.86,1.83c-0.34,0.49-0.47,0.91-0.41,1.25c0.06,0.34,0.28,0.72,0.64,1.15
				c2.04,2.4,3.06,3.59,5.1,5.99c0.52,0.61,1.02,1.12,1.49,1.52c0.47,0.4,0.93,0.7,1.39,0.91c0.79,0.32,1.69,0.35,2.7,0.11
				c1.01-0.24,1.95-0.69,2.83-1.37c0.95-0.72,1.7-1.56,2.27-2.55c0.57-0.98,0.81-1.9,0.72-2.76c-0.07-0.67-0.22-1.3-0.49-1.89
				c-0.27-0.58-0.64-1.25-1.13-1.98c-1.5-2.27-2.25-3.4-3.74-5.67c-0.34-0.51-0.61-0.88-0.82-1.1c-0.21-0.22-0.47-0.36-0.79-0.42
				c-0.32-0.06-0.74,0.02-1.25,0.24c-0.51,0.22-1.16,0.61-1.94,1.17c-0.3-0.42-0.45-0.63-0.74-1.04c3.25-2.32,4.92-3.4,8.33-5.4
				C123.79,116.32,123.92,116.54,124.18,116.99z"/>
			<path class="st5" d="M154.78,104.67c-1.21,0.29-2.05,0.6-2.52,0.92c-0.47,0.31-0.72,0.66-0.75,1.03s0.07,0.94,0.28,1.71
				c1.62,5.76,2.42,8.64,4.04,14.4c-0.57,0.16-0.86,0.24-1.43,0.41c-7.19-4-11.18-5.7-19.75-8.17c1.77,3.76,2.66,5.65,4.43,9.41
				c0.34,0.71,0.63,1.21,0.89,1.48c0.26,0.27,0.65,0.4,1.16,0.37c0.51-0.02,1.25-0.25,2.23-0.67c0.2,0.47,0.3,0.71,0.51,1.18
				c-3.03,1.29-4.53,2.01-7.46,3.57c-0.24-0.45-0.36-0.68-0.61-1.13c0.88-0.47,1.49-0.89,1.8-1.26c0.32-0.37,0.44-0.74,0.38-1.11
				c-0.06-0.37-0.27-0.9-0.62-1.61c-1.71-3.45-2.56-5.18-4.27-8.64c-0.35-0.7-0.63-1.21-0.86-1.53c-0.22-0.32-0.5-0.57-0.83-0.73
				c-0.33-0.16-0.75-0.22-1.28-0.15c-0.53,0.07-1.2,0.27-2.01,0.63c-0.24-0.45-0.36-0.68-0.6-1.13c2.75-1.47,4.15-2.15,6.97-3.42
				c7.61,2.15,11.2,3.58,17.78,6.92c-0.99-3.3-1.49-4.95-2.48-8.25c-0.2-0.67-0.42-1.17-0.66-1.5c-0.24-0.32-0.64-0.5-1.21-0.54
				c-0.57-0.04-1.41,0.12-2.5,0.48c-0.16-0.49-0.25-0.73-0.41-1.21c3.74-1.25,5.64-1.79,9.46-2.71
				C154.6,103.92,154.66,104.17,154.78,104.67z"/>
			<path class="st5" d="M179.15,113.69c0.01,0.58-0.12,1.21-0.41,1.87c-0.28,0.66-0.71,1.3-1.28,1.92
				c-0.57,0.62-1.29,1.15-2.16,1.58c-0.87,0.43-1.88,0.7-3.04,0.81c-1.15,0.11-2.32,0.03-3.52-0.25c-1.2-0.28-2.27-0.77-3.22-1.49
				c-0.24,0.73-0.35,1.4-0.34,1.99c-0.59,0.1-0.88,0.15-1.47,0.26c-0.48-2.54-0.72-3.81-1.2-6.34c0.63-0.12,0.94-0.17,1.57-0.28
				c0.44,0.87,0.98,1.66,1.6,2.39c0.62,0.73,1.41,1.32,2.37,1.78c0.96,0.46,2.06,0.62,3.33,0.49c1.11-0.12,1.97-0.45,2.6-1.02
				c0.63-0.57,0.93-1.24,0.88-2.03c-0.03-0.44-0.16-0.83-0.4-1.14c-0.24-0.32-0.57-0.59-1.01-0.82c-0.43-0.23-1.02-0.47-1.77-0.7
				c-0.75-0.23-1.6-0.46-2.57-0.68c-1.49-0.36-2.74-0.73-3.75-1.13c-1.01-0.4-1.8-0.8-2.37-1.22c-0.57-0.42-0.99-0.84-1.26-1.26
				c-0.27-0.42-0.45-0.86-0.54-1.33c-0.16-0.83-0.02-1.7,0.45-2.62c0.46-0.92,1.25-1.74,2.37-2.44c1.12-0.7,2.49-1.16,4.08-1.35
				c1.22-0.14,2.41-0.06,3.54,0.24c1.14,0.3,2.13,0.77,2.97,1.41c0.2-0.4,0.38-0.96,0.53-1.68c0.72-0.04,1.09-0.06,1.81-0.09
				c0.09,2.1,0.13,3.15,0.22,5.25c-0.69,0.03-1.04,0.04-1.73,0.08c-1.39-2.79-3.74-4.09-6.88-3.73c-1.14,0.13-2.03,0.47-2.65,1
				c-0.62,0.53-0.88,1.14-0.77,1.83c0.08,0.54,0.36,0.98,0.83,1.32c0.47,0.34,1.07,0.61,1.78,0.81c0.71,0.2,1.85,0.47,3.39,0.87
				c1.87,0.48,3.31,0.96,4.34,1.38c1.03,0.42,1.9,1,2.61,1.7C178.77,111.78,179.13,112.66,179.15,113.69z"/>
			<path class="st5" d="M209.25,123.09c-4.15-1.24-6.26-1.74-10.51-2.5c0.09-0.5,0.14-0.76,0.23-1.26c0.88,0.16,1.56,0.21,2.05,0.13
				c0.48-0.07,0.83-0.25,1.02-0.53c0.2-0.28,0.35-0.68,0.46-1.18c0.48-2.21,0.72-3.32,1.19-5.54c-4.37-0.93-6.58-1.27-11.01-1.74
				c-0.24,2.25-0.36,3.38-0.6,5.63c-0.08,0.77,0.05,1.36,0.39,1.75c0.34,0.39,1.19,0.66,2.54,0.85c-0.07,0.51-0.11,0.76-0.18,1.27
				c-4.31-0.59-6.48-0.77-10.82-0.87c0.01-0.51,0.02-0.77,0.03-1.28c0.88,0.02,1.56-0.03,2.03-0.18c0.47-0.15,0.79-0.37,0.94-0.67
				c0.15-0.3,0.25-0.72,0.28-1.25c0.27-4.73,0.41-7.1,0.68-11.83c0.03-0.53-0.02-0.95-0.16-1.25c-0.13-0.31-0.46-0.57-0.97-0.77
				c-0.51-0.2-1.31-0.32-2.4-0.35c0.01-0.51,0.02-0.77,0.03-1.28c5.2,0.13,7.8,0.34,12.95,1.05c-0.07,0.51-0.11,0.76-0.18,1.27
				c-1.57-0.22-2.6-0.15-3.09,0.14c-0.49,0.29-0.77,0.84-0.85,1.63c-0.2,1.85-0.29,2.77-0.49,4.62c4.5,0.47,6.74,0.82,11.17,1.76
				c0.39-1.82,0.59-2.73,0.98-4.54c0.11-0.52,0.13-0.94,0.06-1.26c-0.07-0.32-0.35-0.63-0.83-0.9c-0.48-0.28-1.26-0.52-2.34-0.71
				c0.09-0.5,0.14-0.76,0.23-1.26c5.09,0.91,7.62,1.51,12.59,2.99c-0.15,0.49-0.22,0.74-0.37,1.23c-1.04-0.31-1.85-0.44-2.4-0.41
				c-0.55,0.03-0.94,0.18-1.16,0.43c-0.22,0.25-0.4,0.64-0.53,1.15c-1.22,4.58-1.84,6.87-3.06,11.45c-0.13,0.49-0.18,0.9-0.14,1.22
				c0.03,0.32,0.25,0.63,0.65,0.93c0.4,0.3,1.04,0.58,1.93,0.84C209.48,122.36,209.4,122.6,209.25,123.09z"/>
			<path class="st5" d="M223.43,128.59c-4.07-1.96-6.15-2.82-10.39-4.28c0.17-0.48,0.25-0.73,0.42-1.21
				c0.89,0.31,1.59,0.48,2.1,0.51c0.51,0.02,0.89-0.08,1.14-0.31c0.25-0.23,0.48-0.61,0.68-1.14c1.71-4.42,2.57-6.64,4.28-11.06
				c0.29-0.76,0.29-1.38-0.03-1.86c-0.32-0.48-1.25-1.01-2.81-1.54c0.17-0.48,0.25-0.73,0.42-1.21c5.07,1.74,7.57,2.77,12.44,5.12
				c-0.22,0.46-0.34,0.69-0.56,1.15c-1-0.48-1.8-0.76-2.38-0.86c-0.58-0.09-1.01-0.03-1.3,0.17c-0.28,0.2-0.54,0.57-0.77,1.08
				c-1.93,4.34-2.89,6.51-4.81,10.84c-0.22,0.49-0.32,0.91-0.32,1.25c0.01,0.34,0.19,0.68,0.55,1.03c0.36,0.35,0.99,0.73,1.89,1.16
				C223.77,127.89,223.66,128.12,223.43,128.59z"/>
			<path class="st5" d="M259.02,131.96c-0.95-0.9-1.71-1.46-2.25-1.7s-0.98-0.27-1.31-0.09c-0.33,0.18-0.76,0.57-1.28,1.17
				c-3.93,4.51-5.9,6.77-9.83,11.29c-0.47-0.41-0.71-0.61-1.18-1.02c-0.79-8.37-1.66-12.67-4.41-21.2
				c-2.16,3.56-3.24,5.34-5.39,8.89c-0.41,0.68-0.66,1.2-0.74,1.56c-0.08,0.37,0.03,0.76,0.34,1.17c0.31,0.42,0.92,0.91,1.82,1.5
				c-0.28,0.43-0.42,0.64-0.7,1.07c-2.8-1.84-4.24-2.69-7.17-4.26c0.24-0.45,0.36-0.68,0.61-1.13c0.88,0.47,1.56,0.75,2.05,0.8
				c0.49,0.06,0.87-0.04,1.14-0.3c0.27-0.26,0.61-0.72,1-1.41c1.94-3.33,2.9-5,4.84-8.33c0.39-0.67,0.66-1.2,0.81-1.56
				c0.15-0.37,0.2-0.73,0.15-1.09c-0.04-0.36-0.24-0.75-0.59-1.15c-0.35-0.4-0.9-0.85-1.64-1.32c0.24-0.45,0.36-0.68,0.61-1.13
				c2.75,1.47,4.1,2.26,6.76,3.93c2.49,7.57,3.35,11.38,4.35,18.86c2.21-2.64,3.32-3.97,5.53-6.61c0.45-0.54,0.75-1,0.88-1.38
				c0.13-0.38,0.06-0.82-0.24-1.33c-0.3-0.51-0.91-1.14-1.85-1.88c0.32-0.4,0.47-0.61,0.79-1.01c3.21,2.52,4.77,3.86,7.79,6.7
				C259.54,131.4,259.37,131.59,259.02,131.96z"/>
			<path class="st5" d="M268.39,161.47c-2.16,1.22-3.24,1.84-5.39,3.07c-4.64-7.54-7.31-10.92-13.13-16.9
				c0.37-0.36,0.55-0.54,0.91-0.9c1.02,1.04,1.78,1.63,2.31,1.71c0.53,0.09,1.1-0.14,1.7-0.69c3.5-3.2,5.25-4.8,8.75-8
				c0.4-0.36,0.65-0.7,0.77-1.02c0.12-0.32,0.04-0.75-0.23-1.3c-0.27-0.54-0.82-1.26-1.67-2.13c0.37-0.36,0.55-0.54,0.91-0.9
				c6.49,6.67,9.48,10.4,14.76,18.69c-1.57,1.19-2.35,1.78-3.93,2.95c-0.41-0.65-0.62-0.97-1.04-1.61c0.67-0.96,1.04-1.81,1.11-2.54
				c0.07-0.74-0.06-1.43-0.38-2.08c-0.32-0.65-0.9-1.55-1.74-2.69c-1.27-1.72-1.93-2.56-3.26-4.2c-2.06,1.69-3.09,2.54-5.15,4.23
				c0.68,0.84,1.02,1.26,1.69,2.12c0.57,0.74,1.04,1.26,1.41,1.57c0.37,0.3,0.74,0.43,1.11,0.39c0.37-0.04,0.86-0.24,1.46-0.59
				c0.46,0.63,0.68,0.95,1.13,1.6c-2.05,1.44-3.08,2.16-5.13,3.6c-0.41-0.58-0.61-0.87-1.02-1.44c0.53-0.45,0.87-0.86,1.01-1.22
				c0.14-0.36,0.13-0.76-0.05-1.19c-0.18-0.43-0.55-1.01-1.11-1.74c-0.67-0.86-1-1.29-1.69-2.12c-1.37,1.13-2.06,1.69-3.43,2.82
				c-0.57,0.47-0.98,0.83-1.21,1.09c-0.23,0.26-0.37,0.54-0.42,0.84s0.04,0.68,0.26,1.11c0.21,0.44,0.59,1,1.12,1.7
				c0.48,0.63,0.71,0.95,1.18,1.59c0.49,0.68,1.02,1.28,1.59,1.82c0.57,0.54,1.33,0.93,2.31,1.18c0.97,0.25,2.15,0.13,3.52-0.38
				C267.81,160.53,268,160.84,268.39,161.47z"/>
		</g>
	</g>
	<g>
		<g>
			<path class="st19" d="M95.89,231.07c1.86-1.99,4.24-2.86,7.07-2.8c2.82,0.06,5.35,1,7.75,2.86c2.4,1.86,3.93,4.06,4.64,6.76
				c0.72,2.7,0.43,5.2-1.02,7.49c-1.6,2.54-3.84,3.93-6.77,4.03c-2.93,0.09-5.87-0.92-8.62-3.05s-4.5-4.76-5.16-7.68
				C93.12,235.75,93.88,233.22,95.89,231.07z M99.16,234.18c-2.08,2.38-3.04,4.49-2.83,6.32c0.21,1.84,1.29,3.56,3.22,5.06
				c1.98,1.53,3.9,2.14,5.7,1.85c1.79-0.29,3.56-1.76,5.34-4.37c1.77-2.58,2.53-4.76,2.36-6.52c-0.18-1.76-1.12-3.26-2.85-4.6
				c-1.72-1.33-3.42-1.88-5.18-1.64C103.16,230.53,101.23,231.81,99.16,234.18z"/>
			<path class="st19" d="M129.52,248c1.06-0.92,2.34-1.52,3.81-1.81c1.48-0.29,2.74-0.23,3.81,0.21c0.97,0.4,1.63,0.97,1.98,1.74
				c0.35,0.77,0.43,1.45,0.21,2.03c-0.15,0.39-0.42,0.68-0.83,0.85c-0.4,0.17-0.82,0.18-1.25,0.01c-0.77-0.3-1.14-1.04-1.13-2.18
				c0.01-0.78-0.26-1.28-0.79-1.51c-0.64-0.27-1.57-0.2-2.81,0.17c-1.24,0.37-2.19,0.9-2.83,1.61c-0.64,0.71-1.31,1.78-1.99,3.22
				c-0.54,1.15-0.81,1.72-1.35,2.87c-0.81,1.72-1.29,2.81-1.44,3.29c-0.15,0.47-0.08,0.92,0.23,1.35c0.31,0.43,1,0.89,2.07,1.37
				c0.28,0.12,0.42,0.19,0.71,0.31c-0.16,0.37-0.24,0.55-0.4,0.92c-4.43-1.92-6.61-2.99-10.89-5.34c0.19-0.35,0.29-0.53,0.48-0.88
				c0.2,0.11,0.31,0.17,0.51,0.28c0.98,0.53,1.74,0.79,2.26,0.79c0.53,0,0.93-0.17,1.21-0.51c0.28-0.35,0.89-1.43,1.82-3.27
				c0.91-1.79,1.37-2.68,2.28-4.47c0.87-1.7,1.39-2.79,1.55-3.24c0.17-0.46,0.13-0.9-0.11-1.33c-0.24-0.43-0.82-0.88-1.74-1.38
				c-0.18-0.1-0.27-0.15-0.45-0.25c0.19-0.34,0.28-0.51,0.47-0.86c1.42,0.6,3.38,1.15,5.87,1.58
				C130.7,244.8,130.29,246.28,129.52,248z"/>
			<path class="st19" d="M162.39,268.84c0.39,0.05,0.59,0.08,0.98,0.13c-0.48,2.44-2.17,3.49-5.04,3.01
				c-1.23-0.2-2.15-0.64-2.76-1.28c-0.61-0.64-0.91-1.5-0.92-2.55c-1.96,0.66-3.74,1.05-5.33,1.21c-1.58,0.16-2.96,0.07-4.12-0.24
				c-1.47-0.4-2.64-1.11-3.49-2.09c-0.85-0.98-1.08-2.03-0.73-3.12c0.45-1.42,1.7-2.39,3.68-2.96c1.99-0.58,4.56-0.98,7.7-1.34
				c1.65-0.18,2.47-0.28,4.09-0.52c0.07-0.34,0.1-0.51,0.17-0.85c0.24-1.21,0.33-2.1,0.26-2.67c-0.06-0.57-0.41-1.15-1.04-1.73
				s-1.51-1-2.67-1.27c-2.31-0.56-3.79-0.22-4.43,1.1c-0.65,1.34-1.52,1.88-2.59,1.56c-0.97-0.29-1.32-0.84-1.07-1.64
				c0.25-0.79,1.14-1.44,2.65-1.98c1.5-0.55,3.53-0.46,6.15,0.15c1.94,0.46,3.39,1.05,4.37,1.83c0.98,0.78,1.59,1.56,1.81,2.34
				c0.23,0.79,0.22,1.93-0.03,3.43c-0.48,2.84-0.72,4.26-1.2,7.09c-0.28,1.66-0.36,2.74-0.22,3.25c0.13,0.51,0.56,0.82,1.27,0.93
				C161.08,270.81,161.92,270.21,162.39,268.84z M156.26,260.1c-1.15,0.16-1.73,0.23-2.89,0.37c-4.59,0.54-7.28,1.71-7.9,3.93
				c-0.25,0.88-0.16,1.67,0.26,2.36c0.43,0.69,1.11,1.17,2.04,1.4c0.82,0.21,1.84,0.23,3.03,0.04c1.19-0.19,2.56-0.58,4.07-1.19
				C155.43,264.24,155.71,262.86,156.26,260.1z"/>
			<path class="st19" d="M176.02,254.72c0.25,0.01,0.38,0.01,0.63,0.02c0.33,0.91,0.51,2.14,0.52,3.69c1.19-1.2,2.39-2.11,3.63-2.73
				c1.24-0.62,2.52-0.95,3.86-1.01c1.53-0.06,2.8,0.15,3.82,0.67c1.03,0.52,1.73,1.19,2.1,2.02c0.37,0.83,0.63,2.07,0.79,3.72
				c0.21,2.22,0.32,3.32,0.53,5.54c0.19,2.05,0.36,3.29,0.49,3.73c0.13,0.44,0.45,0.75,0.95,0.92c0.49,0.17,1.39,0.19,2.66,0.04
				c0.05,0.4,0.07,0.6,0.12,0.99c-4.54,0.56-6.83,0.74-11.4,0.9c-0.01-0.4-0.02-0.6-0.04-1c0.21-0.01,0.31-0.01,0.51-0.02
				c1.3-0.05,2.14-0.25,2.51-0.58c0.38-0.33,0.58-0.69,0.6-1.1c0.03-0.41-0.02-1.6-0.15-3.58c-0.15-2.29-0.22-3.44-0.37-5.73
				c-0.09-1.4-0.23-2.4-0.42-2.99c-0.19-0.59-0.64-1.1-1.32-1.53c-0.68-0.43-1.52-0.62-2.54-0.59c-1.16,0.04-2.25,0.37-3.31,1
				c-1.06,0.63-2.08,1.56-3.07,2.8c-0.07,2.9-0.11,4.35-0.18,7.26c-0.05,2.06-0.03,3.31,0.06,3.76c0.09,0.45,0.37,0.8,0.84,1.03
				c0.47,0.23,1.36,0.36,2.66,0.35c0,0.4,0,0.6,0,1c-4.52,0.02-6.78-0.07-11.28-0.44c0.03-0.4,0.05-0.6,0.08-1
				c1.24,0.1,2.11,0.05,2.61-0.12c0.5-0.17,0.82-0.46,0.96-0.87c0.14-0.4,0.26-1.69,0.38-3.86c0.11-2.12,0.17-3.18,0.28-5.3
				c0.11-2.07,0.13-3.33,0.07-3.77c-0.06-0.44-0.3-0.79-0.71-1.04c-0.41-0.25-1.18-0.41-2.32-0.5c0.03-0.4,0.05-0.6,0.08-1
				C172.41,255.38,174.2,255.15,176.02,254.72z"/>
			<path class="st19" d="M215.21,251.6c0.88-1.74,1.93-2.83,3.23-3.3c0.72-0.26,1.34-0.29,1.86-0.08c0.53,0.2,0.87,0.51,1.04,0.93
				c0.34,0.89,0.06,1.52-0.86,1.86c-0.5,0.19-1.05,0.06-1.61-0.36c-0.52-0.4-0.96-0.54-1.32-0.41c-0.58,0.2-1.09,0.77-1.57,1.72
				c1.17,0.87,1.98,1.92,2.41,3.19c0.56,1.65,0.36,3.34-0.65,5.06c-1.01,1.73-3.26,3.19-6.71,4.17c-3.59,1.01-5.3,1.95-5.07,3.07
				c0.11,0.53,0.62,0.8,1.49,0.84c0.86,0.04,2.66-0.15,5.33-0.73c2.91-0.63,5.19-1.1,6.83-1.28c1.64-0.18,3.09,0.02,4.34,0.63
				c1.25,0.6,2.13,1.53,2.59,2.82c0.65,1.8,0.21,3.61-1.43,5.4c-1.64,1.79-4.42,3.31-8.31,4.34c-3.56,0.95-6.57,1.07-8.92,0.47
				c-2.35-0.59-3.64-1.72-3.92-3.29c-0.15-0.87,0.02-1.64,0.5-2.3c0.48-0.66,1.26-1.1,2.34-1.31c0.29-0.06,0.56-0.08,0.81-0.06
				c-0.93,1.2-1.3,2.33-1.09,3.41c0.25,1.25,1.23,2.14,2.97,2.62c1.74,0.48,4.21,0.36,7.33-0.48c2.78-0.74,4.81-1.82,6.07-3.11
				c1.26-1.29,1.65-2.58,1.23-3.83c-0.47-1.37-1.45-2.12-2.93-2.26c-1.47-0.14-3.88,0.26-7.26,1.03c-3.88,0.88-6.49,1-7.76,0.62
				c-1.27-0.38-1.99-1.07-2.17-2.04c-0.35-1.86,1.02-3.31,4.03-4.5c-1.8-0.42-3.2-1.09-4.2-1.95c-1.01-0.87-1.61-1.94-1.85-3.21
				c-0.33-1.78,0.18-3.43,1.46-5c1.28-1.56,2.91-2.58,4.97-3.11C210.98,250.52,213.2,250.64,215.21,251.6z M205.77,259.03
				c0.4,1.83,1.13,3.07,2.22,3.71c1.09,0.64,2.34,0.79,3.72,0.43c1.28-0.33,2.27-1.06,2.94-2.15c0.66-1.09,0.67-2.66,0.06-4.7
				c-0.62-2.05-1.5-3.33-2.62-3.85c-1.12-0.52-2.22-0.64-3.35-0.35c-1.41,0.37-2.36,1.1-2.85,2.24S205.34,257.06,205.77,259.03z"/>
			<path class="st19" d="M244.72,242.6c-4.95,3.18-7.51,4.6-12.73,7.11c0.31,0.8,0.55,1.39,0.74,1.77c1.35,2.82,2.91,4.69,4.71,5.55
				c1.8,0.86,3.84,0.71,6.02-0.5c2.97-1.64,4.43-3.93,4.35-6.68c0.45-0.28,0.67-0.42,1.11-0.7c0.31,1.56-0.07,3.18-1.16,4.81
				c-1.09,1.63-2.58,2.97-4.43,3.98c-1.71,0.93-3.54,1.44-5.41,1.52c-1.87,0.07-3.59-0.32-5.13-1.15c-1.54-0.83-2.69-2.18-3.48-3.99
				c-1.13-2.58-1.16-5.1-0.26-7.57c0.9-2.47,2.51-4.3,4.93-5.61c2.27-1.23,4.34-1.64,6.32-1.19
				C242.26,240.4,243.76,241.26,244.72,242.6z M240.45,244.21c-0.12-0.31-0.25-0.58-0.39-0.81c-0.65-1.1-1.52-1.73-2.6-1.92
				c-1.08-0.19-2.15,0.01-3.21,0.58c-2.59,1.4-3.44,3.61-2.55,6.82C235.26,247.17,237.01,246.24,240.45,244.21z"/>
			<path class="st19" d="M258.77,247.9c-1.39-1.88-2.09-2.82-3.48-4.7c0.34-0.26,0.52-0.38,0.86-0.64c3.02,1.95,5.93,1.86,8.51-0.31
				c1.12-0.94,1.73-1.92,1.83-2.9c0.1-0.97-0.13-1.76-0.66-2.35c-0.62-0.69-1.41-1.01-2.36-0.96c-0.96,0.05-2.53,0.49-4.72,1.2
				c-2.3,0.74-4.08,1.01-5.35,0.91c-1.26-0.1-2.25-0.65-2.99-1.64c-0.7-0.94-0.97-2.14-0.84-3.57c0.12-1.43,0.85-2.67,2.19-3.77
				c1.37-1.12,2.88-1.6,4.61-1.44c0.05-0.33-0.06-0.95-0.32-1.84c0.28-0.25,0.41-0.37,0.69-0.63c1.49,1.62,2.23,2.43,3.72,4.06
				c-0.29,0.26-0.43,0.39-0.72,0.66c-1.14-0.75-2.4-1.14-3.75-1.22c-1.36-0.07-2.53,0.3-3.53,1.12c-0.77,0.63-1.24,1.34-1.39,2.15
				c-0.16,0.81-0.02,1.49,0.41,2.05c0.48,0.62,1.18,0.93,2.07,0.95c0.89,0.02,2.36-0.28,4.36-1c3.01-1.09,5.14-1.58,6.37-1.27
				c1.24,0.31,2.2,0.82,2.88,1.54c1.06,1.13,1.44,2.51,1.09,4.15c-0.35,1.64-1.33,3.16-2.92,4.49c-1.67,1.41-3.62,2.1-5.76,2.05
				c-0.14,0.66-0.1,1.41,0.13,2.25C259.31,247.5,259.13,247.63,258.77,247.9z"/>
		</g>
	</g>
	<path class="st24" d="M180.02,153.89c-18.83,0-34.11,15.13-34.4,33.9l68.76-0.66C213.75,168.67,198.63,153.89,180.02,153.89z"/>
	<path class="st24" d="M144.97,184.62l-12.48-25.61c-0.18,0.01-2.69,4.84-4.9,11.48L144.97,184.62z"/>
	<path class="st24" d="M152.12,138.94l-1.64,29.89l-9.62-21.07C140.68,147.59,148.02,141.11,152.12,138.94z"/>
	<path class="st24" d="M180.62,130.75l-7.91,23.01l-4.42-21.56C168.3,132.21,177.04,130.6,180.62,130.75z"/>
	<path class="st24" d="M209.12,138.08l-18.65,14.49l7.34-19.3C197.81,133.27,202.41,133.75,209.12,138.08z"/>
	<path class="st24" d="M230.01,158.84l-24.47,0.62l17.01-10.61C222.55,148.84,227.17,153.61,230.01,158.84z"/>
	<path class="st24" d="M237.62,187.59l-22.83-12.78h21.25C236.04,174.8,237.92,179.78,237.62,187.59z"/>
	<text transform="matrix(1 0 0 1 166.0128 171.8093)" class="st25 st26 st27">PLU</text>
	<text transform="matrix(1 0 0 1 158.8135 186.1238)"><tspan x="0" y="0" class="st25 st28 st29 st30">#</tspan><tspan x="9.67" y="0" class="st25 st28 st29 st31">4013</tspan></text>
	<text transform="matrix(1 0 0 1 146.5831 206.1277)" class="st5 st26 st32 st30">Navel</text>
</g>
</svg>
