<?xml version="1.0" encoding="utf-8"?>
<!-- Generator: Adobe Illustrator 27.4.1, SVG Export Plug-In . SVG Version: 6.00 Build 0)  -->
<svg version="1.1" id="Layer_1" xmlns="http://www.w3.org/2000/svg" xmlns:xlink="http://www.w3.org/1999/xlink" x="0px" y="0px"
	 viewBox="0 0 1366 768" style="enable-background:new 0 0 1366 768;" xml:space="preserve">
<style type="text/css">
	.st0{clip-path:url(#SVGID_00000082347750937068005870000004104840305078617514_);fill:#792B89;}
	.st1{clip-path:url(#SVGID_00000082347750937068005870000004104840305078617514_);fill:#8DC63F;}
	.st2{fill:#FFFFFF;}
	
		.st3{clip-path:url(#SVGID_00000083061991458141623790000010865418356481969851_);fill:none;stroke:#231F20;stroke-width:3;stroke-miterlimit:10;}
	.st4{fill:#231F20;}
	
		.st5{clip-path:url(#SVGID_00000163041572361913974010000000775386846143426221_);fill:none;stroke:#231F20;stroke-width:3;stroke-miterlimit:10;}
	.st6{fill:none;stroke:#231F20;stroke-width:3;stroke-miterlimit:10;}
	.st7{font-family:'Helvetica';}
	.st8{font-size:20.4781px;}
	.st9{font-family:'Helvetica-Light';}
	.st10{font-size:13.2981px;}
	.st11{font-size:17.1444px;}
	.st12{font-size:12.7662px;}
	.st13{clip-path:url(#SVGID_00000101098770170564976140000007273223044460592806_);fill:none;stroke:#231F20;stroke-miterlimit:10;}
	.st14{fill:#6E4196;}
	.st15{fill:#DF2991;}
	.st16{fill:#F37121;}
	.st17{fill:#249FDA;}
	.st18{fill:#792B89;}
	.st19{font-family:'NeueKabel-Light';}
	.st20{font-size:15.9577px;}
	.st21{font-family:'NeueKabel-ExtraBold';}
	.st22{font-size:22.8727px;}
	.st23{font-family:'NeueKabel-Medium';}
	.st24{font-size:19.6812px;}
	.st25{font-size:19.1493px;}
	.st26{clip-path:url(#SVGID_00000134222596186130714110000010348408547494565000_);}
	.st27{font-family:'Marvin';}
	.st28{font-size:24.4685px;}
	.st29{fill:#EE5E25;}
	.st30{font-family:'NeueKabel-Regular';}
	.st31{font-size:18.0854px;}
	.st32{clip-path:url(#SVGID_00000076562036855516684640000005821962341196270220_);fill:none;stroke:#6E4196;stroke-miterlimit:10;}
	.st33{fill:none;stroke:#792B89;stroke-width:2;stroke-miterlimit:10;}
	.st34{fill:none;stroke:#FFFFFF;stroke-width:3;stroke-miterlimit:10;}
	.st35{clip-path:url(#SVGID_00000080916882114189148540000000946040879649259938_);fill:#EE5E25;}
	.st36{clip-path:url(#SVGID_00000080916882114189148540000000946040879649259938_);fill:#792B89;}
	.st37{clip-path:url(#SVGID_00000080916882114189148540000000946040879649259938_);fill:#FFFFFF;}
	.st38{clip-path:url(#SVGID_00000080916882114189148540000000946040879649259938_);fill:#DF2991;}
</style>
<g>
	<defs>
		<rect id="SVGID_1_" x="404.74" y="273.65" width="546.47" height="227.54"/>
	</defs>
	<clipPath id="SVGID_00000000200276697368083210000010013341712231772321_">
		<use xlink:href="#SVGID_1_"  style="overflow:visible;"/>
	</clipPath>
	<path style="clip-path:url(#SVGID_00000000200276697368083210000010013341712231772321_);fill:#792B89;" d="M825.65,501.19
		L825.65,501.19V273.65h124.95v102.59C950.59,445.25,894.65,501.19,825.65,501.19"/>
	<path style="clip-path:url(#SVGID_00000000200276697368083210000010013341712231772321_);fill:#8DC63F;" d="M935.3,372.37
		c-66.14,9.19-82.06,40.24-82.06,40.24c-15.9,16.93-19.04,81.3-19.04,81.3C960.35,457.32,935.3,372.37,935.3,372.37"/>
</g>
<rect x="896.63" y="273.86" class="st2" width="54.58" height="54.36"/>
<g>
	<defs>
		<rect id="SVGID_00000078005205605750590650000011730705058573194135_" x="404.74" y="273.65" width="546.47" height="227.54"/>
	</defs>
	<clipPath id="SVGID_00000180364829711790525370000015139939397617328543_">
		<use xlink:href="#SVGID_00000078005205605750590650000011730705058573194135_"  style="overflow:visible;"/>
	</clipPath>
	
		<rect x="900.01" y="277.02" style="clip-path:url(#SVGID_00000180364829711790525370000015139939397617328543_);fill:none;stroke:#231F20;stroke-width:3;stroke-miterlimit:10;" width="14.25" height="14.19"/>
</g>
<rect x="903.86" y="280.87" class="st4" width="6.53" height="6.5"/>
<g>
	<defs>
		<rect id="SVGID_00000065770810428747382460000008016824075958909627_" x="404.74" y="273.65" width="546.47" height="227.54"/>
	</defs>
	<clipPath id="SVGID_00000072998577199599931280000011953618452561821089_">
		<use xlink:href="#SVGID_00000065770810428747382460000008016824075958909627_"  style="overflow:visible;"/>
	</clipPath>
	
		<rect x="933.45" y="277.67" style="clip-path:url(#SVGID_00000072998577199599931280000011953618452561821089_);fill:none;stroke:#231F20;stroke-width:3;stroke-miterlimit:10;" width="14.25" height="14.19"/>
</g>
<rect x="937.3" y="281.61" class="st4" width="6.53" height="6.5"/>
<rect x="900.01" y="310.61" class="st6" width="14.25" height="14.19"/>
<rect x="903.86" y="314.46" class="st4" width="6.53" height="6.5"/>
<polygon class="st4" points="898.95,304.48 901.38,304.48 901.38,302.02 903.86,302.02 903.86,297.43 910.86,297.43 910.86,295.26 
	898.95,295.26 "/>
<rect x="906.06" y="302.15" class="st4" width="2.44" height="2.61"/>
<rect x="908.5" y="304.64" class="st4" width="7.1" height="2.07"/>
<rect x="915.6" y="302.05" class="st4" width="2.59" height="2.58"/>
<rect x="910.7" y="299.87" class="st4" width="4.9" height="2.18"/>
<rect x="920.3" y="299.87" class="st4" width="2.46" height="2.28"/>
<polygon class="st4" points="913.15,297.37 913.15,295.13 920.3,295.13 920.3,299.87 918.19,299.87 918.19,297.37 "/>
<rect x="920.3" y="292.68" class="st4" width="2.46" height="2.46"/>
<rect x="922.77" y="290.37" class="st4" width="2.32" height="2.31"/>
<rect x="918.01" y="287.89" class="st4" width="2.29" height="4.79"/>
<rect x="925.09" y="287.89" class="st4" width="2.5" height="2.49"/>
<rect x="927.58" y="290.37" class="st4" width="2.32" height="2.31"/>
<polygon class="st4" points="920.3,287.89 920.3,285.42 918.24,285.42 918.24,283.4 922.77,283.4 922.77,287.89 "/>
<polygon class="st4" points="927.58,287.89 929.81,287.89 929.81,276.13 922.77,276.13 922.77,278.38 918.01,278.36 918.01,281.13 
	922.53,281.1 922.58,283.4 927.58,283.4 "/>
<rect x="924.82" y="278.36" class="st2" width="2.76" height="2.76"/>
<rect x="929.68" y="295.13" class="st4" width="2.63" height="2.23"/>
<polygon class="st4" points="927.58,295.13 927.58,297.37 929.68,297.37 929.81,302.15 932.31,302.15 932.31,304.67 937.14,304.67 
	937.14,309.23 934.61,309.23 934.65,306.68 929.68,306.68 929.68,309.42 927.58,309.42 927.58,304.6 925.08,304.64 925.08,302.15 
	927.58,302.28 927.58,299.87 925.08,299.87 925.08,295.13 "/>
<rect x="929.68" y="295.13" class="st4" width="2.63" height="2.23"/>
<rect x="934.61" y="294.85" class="st4" width="2.53" height="2.52"/>
<rect x="943.87" y="295.13" class="st4" width="2.79" height="2.23"/>
<rect x="946.43" y="297.37" class="st4" width="2.5" height="2.49"/>
<polygon class="st4" points="937.14,297.37 939.42,297.37 939.42,295.13 941.72,295.13 941.72,302.15 943.87,302.15 943.87,299.85 
	946.43,299.85 946.43,304.7 948.92,304.7 948.92,306.96 943.87,306.96 943.87,304.6 939.35,304.64 939.42,299.85 937.14,299.85 "/>
<rect x="941.69" y="306.96" class="st4" width="2.46" height="2.46"/>
<polygon class="st4" points="946.43,309.42 946.43,314.23 939.35,314.23 939.35,311.65 943.96,311.68 943.93,309.42 "/>
<rect x="946.43" y="313.98" class="st4" width="2.5" height="2.49"/>
<rect x="943.93" y="323.45" class="st4" width="2.72" height="2.46"/>
<rect x="936.89" y="323.45" class="st4" width="2.46" height="2.46"/>
<rect x="939.19" y="318.73" class="st4" width="4.74" height="4.72"/>
<polygon class="st4" points="936.89,323.45 936.89,320.9 934.61,320.9 934.61,318.73 939.19,318.73 939.19,316.43 927.51,316.43 
	927.51,313.98 925.08,313.98 925.08,311.65 920.27,311.65 920.27,314.17 922.77,314.17 922.77,316.4 925.08,316.37 925.08,318.7 
	927.54,318.67 927.54,320.99 925.08,320.99 925.08,323.67 927.54,323.67 927.57,325.97 929.88,325.97 929.91,323.45 "/>
<rect x="929.59" y="318.73" class="st2" width="2.79" height="2.36"/>
<rect x="925.09" y="309.16" class="st4" width="2.5" height="2.49"/>
<polygon class="st4" points="925.09,309.16 925.09,304.64 920.3,304.64 920.27,306.9 922.77,306.9 922.77,309.16 "/>
<rect x="917.92" y="306.9" class="st4" width="2.35" height="4.75"/>
<polygon class="st4" points="920.27,314.17 920.27,318.94 922.79,318.94 922.79,323.47 920.27,323.47 920.27,325.97 918.01,325.97 
	918.01,314.17 "/>
<text transform="matrix(0 -1 1 0 854.8845 371.2158)" class="st2 st7 st8">Molly Cich</text>
<text transform="matrix(1 0 0 1 869.1003 367.5947)" class="st2 st9 st10">8:30/9:08 am</text>
<text transform="matrix(1 0 0 1 853.7614 426.3613)" class="st2 st7 st11">Honolulu </text>
<text transform="matrix(1 0 0 1 869.0202 449.2148)" class="st2 st9 st11">Lihue</text>
<text transform="matrix(1 0 0 1 854.1628 445.1386)" class="st2 st7 st12">to</text>
<rect x="406.08" y="274.03" class="st2" width="421.37" height="226.86"/>
<g>
	<defs>
		<rect id="SVGID_00000091733289460234382030000001295432572474221441_" x="404.74" y="273.65" width="546.47" height="227.54"/>
	</defs>
	<clipPath id="SVGID_00000063604463379785819120000015957094238892972194_">
		<use xlink:href="#SVGID_00000091733289460234382030000001295432572474221441_"  style="overflow:visible;"/>
	</clipPath>
	
		<rect x="406.08" y="274.03" style="clip-path:url(#SVGID_00000063604463379785819120000015957094238892972194_);fill:none;stroke:#231F20;stroke-miterlimit:10;" width="421.37" height="226.86"/>
</g>
<rect x="406.08" y="355.62" class="st14" width="361.99" height="52.12"/>
<rect x="406.08" y="430.32" class="st15" width="420.97" height="22.96"/>
<rect x="406.08" y="472.76" class="st16" width="210.01" height="23.26"/>
<rect x="616.09" y="472.76" class="st17" width="210.84" height="23.26"/>
<text transform="matrix(1 0 0 1 726.8259 291.0605)" class="st18 st19 st20">Ec</text>
<text transform="matrix(1 0 0 1 741.6335 291.0605)" class="st18 st19 st20">onom</text>
<text transform="matrix(1 0 0 1 779.3581 291.0605)" class="st18 st19 st20">y Clas</text>
<text transform="matrix(1 0 0 1 817.4489 291.0605)" class="st18 st19 st20">s</text>
<text transform="matrix(1 0 0 1 635.3864 390.0458)" class="st2 st21 st22">Flight A</text>
<text transform="matrix(1 0 0 1 717.6833 390.0458)" class="st2 st21 st22">C68</text>
<text transform="matrix(1 0 0 1 416.444 490.162)" class="st2 st23 st20">D</text>
<text transform="matrix(1 0 0 1 427.4382 490.162)" class="st2 st23 st20">epar</text>
<text transform="matrix(1 0 0 1 459.7057 490.162)" class="st2 st23 st20">ture:</text>
<text transform="matrix(1 0 0 1 493.614 490.162)" class="st2 st23 st24"> </text>
<text transform="matrix(1 0 0 1 498.1599 490.162)" class="st2 st23 st25">8:30 a</text>
<text transform="matrix(1 0 0 1 551.8737 490.162)" class="st2 st23 st25">m</text>
<text transform="matrix(1 0 0 1 624.9782 490.162)" class="st4 st23 st20">Arriv</text>
<text transform="matrix(1 0 0 1 659.7682 490.162)" class="st4 st23 st20">al:</text>
<text transform="matrix(1 0 0 1 676.6345 490.162)" class="st4 st23 st24"> </text>
<text transform="matrix(1 0 0 1 681.1794 490.162)" class="st4 st23 st25">9:08 am</text>
<text transform="matrix(1 0 0 1 417.7819 448.0331)" class="st4 st23 st25">HN</text>
<text transform="matrix(1 0 0 1 446.5446 448.0331)" class="st4 st23 st25">L</text>
<text transform="matrix(1 0 0 1 469.9557 448.0302)" class="st2 st23 st20">Honolulu, HI</text>
<text transform="matrix(1 0 0 1 635.404 448.0302)" class="st4 st23 st25">LI</text>
<text transform="matrix(1 0 0 1 650.5319 448.0302)" class="st4 st23 st25">H</text>
<text transform="matrix(1 0 0 1 680.6481 448.0302)" class="st2 st23 st20">Lihue, HI</text>
<text transform="matrix(1 0 0 1 419.0046 389.9072)" class="st2 st21 st22">Se</text>
<text transform="matrix(1 0 0 1 444.8278 389.9072)" class="st2 st21 st22">at 12A</text>
<g>
	<defs>
		<rect id="SVGID_00000052087577993320536860000016348399311827334276_" x="404.74" y="273.65" width="546.47" height="227.54"/>
	</defs>
	<clipPath id="SVGID_00000088819899351980550410000016865845339181649548_">
		<use xlink:href="#SVGID_00000052087577993320536860000016348399311827334276_"  style="overflow:visible;"/>
	</clipPath>
	<g style="clip-path:url(#SVGID_00000088819899351980550410000016865845339181649548_);">
		<text transform="matrix(1 0 0 1 411.3747 301.8671)" class="st15 st27 st28">Hai</text>
	</g>
	<g style="clip-path:url(#SVGID_00000088819899351980550410000016865845339181649548_);">
		<text transform="matrix(1 0 0 1 456.4704 301.8671)" class="st15 st27 st28">wa</text>
	</g>
	<g style="clip-path:url(#SVGID_00000088819899351980550410000016865845339181649548_);">
		<text transform="matrix(1 0 0 1 496.0114 301.8671)" class="st15 st27 st28">iian Airlines</text>
	</g>
</g>
<text transform="matrix(1 0 0 1 541.7809 390.0449)" class="st2 st21 st22">Gate 4</text>
<text transform="matrix(1 0 0 1 416.2145 341.7275)" class="st17 st23 st20">Pa</text>
<text transform="matrix(1 0 0 1 432.0446 341.7275)" class="st17 st23 st20">ssenger</text>
<text transform="matrix(1 0 0 1 498.6003 341.8515)" class="st29 st30 st31">Molly Cich</text>
<g>
	<defs>
		<rect id="SVGID_00000124882693387705127900000001072683544254024102_" x="404.74" y="273.65" width="546.47" height="227.54"/>
	</defs>
	<clipPath id="SVGID_00000113341145895176350590000013631307256630903206_">
		<use xlink:href="#SVGID_00000124882693387705127900000001072683544254024102_"  style="overflow:visible;"/>
	</clipPath>
	
		<line style="clip-path:url(#SVGID_00000113341145895176350590000013631307256630903206_);fill:none;stroke:#6E4196;stroke-miterlimit:10;" x1="404.74" y1="314.29" x2="725.38" y2="313.39"/>
</g>
<line class="st33" x1="491" y1="329.88" x2="491.07" y2="344.9"/>
<path class="st34" d="M526.79,355.62v52.12 M627.28,355.62v52.12"/>
<g>
	<defs>
		<rect id="SVGID_00000126302998196515964430000007916334145539065022_" x="404.74" y="273.65" width="546.47" height="227.54"/>
	</defs>
	<clipPath id="SVGID_00000018917194662415419800000009215595739386903681_">
		<use xlink:href="#SVGID_00000126302998196515964430000007916334145539065022_"  style="overflow:visible;"/>
	</clipPath>
	<path style="clip-path:url(#SVGID_00000018917194662415419800000009215595739386903681_);fill:#EE5E25;" d="M819.51,376.72
		c0,0,1.26-5.04-2.63-6.12c0,0,0-8.69-9.67-6.33c0,0-2.63-5.45-8.25-3.36c0,0,3.98,4.01,1.07,12.76c0,0,0.64-10.03-3.98-12.09
		c0,0-6.4-3.07-8.82,2.98c0,0-10.88-0.07-9.81,10.46c0,0-5.76,0.28-3.06,6.4c0,0,12.02-6.19,17.63,1.21c0,0-12.09-5.97-18.7,2.35
		c0,0-2.06,4.27,2.91,3.77c0,0-5.9,8.39,3.48,9.17c0,0-0.92,5.98,5.26,7.47c0,0,1.05-9.39,11.33-11.95c0,0-9.2,5.42-9.2,11.95
		c0,0,3.48,3.33,7.39-0.51c0,0,3.27,4.98,8.03,0c0,0,3.84,2.21,5.9-1.49c0,0,4.2-8.46-1.42-9.74c0,0-2.13,0.14-3.2-0.78
		c0,0-0.52-1.1,0.18-1.96c0,0,0.53-0.96,0.21-1.81c0,0-0.68-0.26-0.18-0.64c0,0,0.39-0.25-0.07-0.44c0,0-0.53-0.28-0.07-0.8
		c0,0,0.73-0.52,0.34-1.49l-0.5-0.77c0,0-0.59-0.55,0.5-1.19c0,0,1.61-0.87,2.37-3.91c0,0,0.78-3.59,2.31-4.02
		C808.88,375.83,815.1,371.97,819.51,376.72"/>
	<path style="clip-path:url(#SVGID_00000018917194662415419800000009215595739386903681_);fill:#792B89;" d="M819.51,376.72
		c0,0,4.73,3.68,1.58,12.05c0,0-1.17,4.53-4.37,5.65c0,0-0.32,6.03-6.61,9.07c0,0,5.28-7.52,2.45-12.64l-2.45-5.71
		c0,0-3.47-4.5-1.23-9.31C808.88,375.83,815.1,371.86,819.51,376.72"/>
	<path style="clip-path:url(#SVGID_00000018917194662415419800000009215595739386903681_);fill:#FFFFFF;" d="M810.11,403.49
		c0,0,4.91-6.51,2.45-12.64l-2.45-5.71c0,0-3.41-5.24-1.23-9.31c0,0-1.41,0.13-2.31,4.02c0,0-0.4,2.37-2.37,3.91
		c0,0-1,0.42-0.5,1.19l0.5,0.77c0,0,0.37,0.91-0.34,1.49c0,0-0.5,0.52,0.07,0.8c0,0,0.46,0.14,0.07,0.44c0,0-0.51,0.34,0.18,0.64
		c0,0,0.33,0.83-0.21,1.81c0,0-0.68,0.65-0.18,1.96c0,0,1.05,0.89,3.2,0.78c0,0,5.44,1,1.42,9.74L810.11,403.49z"/>
	<path style="clip-path:url(#SVGID_00000018917194662415419800000009215595739386903681_);fill:#DF2991;" d="M811.69,385.51
		c0,0-2.06-1.35-2.44,0.12c0,0-0.4,0.95,0.52,1.4c0,0-1.59,0.81,0.14,1.66c0,0,0.85,0.24,1.78-0.59c0,0-0.92,2.11,0.57,2.77
		c0,0,0.57,0,0.97-0.59c0,0,1.35,1.02,1.52-0.19l-0.78-2.01l1.56,1.49c0,0,0.76,0.47,1.38-0.33c0,0,0.43-0.43-0.17-0.95
		c0,0,1.21-0.31,0.83-1.16c0,0-0.07-0.52-2.16-0.55c0,0,2.35-0.31,2.23-1.14c0,0,0.02-0.88-1-0.78c0,0,0.57-0.64-0.05-1.04
		c0,0-0.71-0.81-2.18,1.82c0,0,0.31-3.2-0.21-3.29c0,0-0.69-0.76-1.4,0.69c0,0-0.71-0.97-1.35-0.33c0,0-0.83,0.38-0.31,1.47
		L811.69,385.51z"/>
</g>
<rect x="813.11" y="386.38" class="st2" width="0.22" height="0.22"/>
<rect x="812.83" y="385.98" class="st2" width="0.22" height="0.22"/>
<rect x="813.51" y="385.98" class="st2" width="0.22" height="0.22"/>
<rect x="812.83" y="386.82" class="st2" width="0.22" height="0.22"/>
<rect x="813.45" y="386.82" class="st2" width="0.22" height="0.22"/>
<rect x="813.61" y="386.4" class="st2" width="0.22" height="0.22"/>
<rect x="812.56" y="386.4" class="st2" width="0.22" height="0.22"/>
<text transform="matrix(1 0 0 1 623.6442 341.6279)" class="st17 st30 st20">Date</text>
<text transform="matrix(1 0 0 1 654.6022 341.6279)" class="st17 st30 st20"> </text>
<text transform="matrix(1 0 0 1 671.1423 341.7929)" class="st29 st30 st31">12 March 202</text>
<text transform="matrix(1 0 0 1 773.2526 341.7929)" class="st29 st30 st31">3</text>
<line class="st33" x1="662.97" y1="330.2" x2="663.04" y2="345.22"/>
</svg>
