<?xml version="1.0" encoding="UTF-8"?><svg id="Layer_1" xmlns="http://www.w3.org/2000/svg" viewBox="0 0 268.82 272.4"><defs><style>.cls-1{fill:#faaf41;}.cls-2{fill:#ee4137;}.cls-3{fill:#f05a2b;}.cls-4{fill:#fff;}.cls-5{fill:#eb2027;}.cls-6{fill:#f16623;}.cls-7{fill:#804097;}.cls-8{fill:#87d0cd;}.cls-9{fill:#27a8e0;}.cls-10{fill:#3bb44a;}.cls-11{fill:none;stroke:#f1f1f1;stroke-miterlimit:10;}</style></defs><ellipse class="cls-8" cx="134.41" cy="136.2" rx="134.41" ry="136.2"/><circle class="cls-3" cx="131.31" cy="126.69" r="76.89"/><path class="cls-10" d="m132.49,123.15l35.8,62.64c16.84-10.32,29.22-27.68,32.51-48.73.7-4.48.94-8.92.78-13.29l-69.06-.68-.03.06Z"/><path class="cls-2" d="m133.08,123.01l-33.35-58.36c-18.63,9.93-32.54,28.16-36.12,50.59-.36,2.37-.6,4.73-.72,7.07l70.19.69Z"/><path class="cls-6" d="m163.17,66.19c-6.58-3.44-13.81-5.89-21.55-7.1-15.52-2.42-30.64.48-43.52,7.34l33.35,58.36h.06s31.65-58.6,31.65-58.6Z"/><path class="cls-1" d="m164.79,64.58l-31.65,58.6,69.06.68c-.89-25.21-15.44-47.81-37.41-59.29Z"/><path class="cls-7" d="m60.82,123.09c-1.38,26.9,12.81,51.68,35.39,64.55l34.55-63.85-69.93-.69Z"/><path class="cls-9" d="m166.98,185.58l-35.8-62.64-34.54,63.96c7.01,3.95,14.81,6.77,23.2,8.13,17.01,2.65,33.53-1.11,47.14-9.45Z"/><circle class="cls-11" cx="131.31" cy="126.69" r="70.25"/><line class="cls-11" x1="61.15" y1="123.18" x2="201.52" y2="124.57"/><line class="cls-11" x1="167.39" y1="186.97" x2="97.7" y2="65.01"/><line class="cls-11" x1="96.82" y1="187.9" x2="163.58" y2="64.29"/><polygon class="cls-5" points="133.08 123.19 133.11 123.24 133.14 123.19 133.08 123.19"/><path d="m41.46,118.29c-.7,4.83-1.95,9.89-4.26,13.97l-3.05-1.43c2.04-3.45,3.43-8.21,4.12-13,.95-6.52.65-12.05-2.69-12.53-2.62-.38-3.81,3.03-5.56,10.82-2.06,9.12-4.1,14.35-9.09,13.62-4.84-.7-6.07-7.42-4.68-17,.69-4.75,1.86-9.51,3.85-12.92l3.02,1.39c-1.92,3.39-3.03,7.52-3.69,12.04-.78,5.4-1.1,11.9,1.84,12.33,2.33.34,3.55-2.52,5.25-10.16,2.01-9.05,3.94-15,9.18-14.24,6.17.9,7,8.55,5.76,17.12Z"/><path d="m55.62,59.72c6.51,4.01,3.65,12.88-.03,18.86-3.64,5.91-10.29,12.49-16.8,8.48l-12.97-7.99,2.11-3.42,12.47,7.68c4.42,2.72,9.43-1.2,12.6-6.35,3.17-5.15,4.42-11.39,0-14.11l-12.47-7.69,2.13-3.45,12.97,7.99Z"/><path d="m99.61,39.23l-.43.27-33.63-1.07,9.6,15.38-3.41,2.13-13.25-21.23.43-.27,33.62,1.12-9.62-15.41,3.44-2.15,13.25,21.23Z"/><path d="m123.99,35.04c-4.86.39-10.07.29-14.56-1.06l.72-3.29c3.81,1.22,8.77,1.52,13.59,1.14,6.57-.52,11.89-2.03,11.62-5.4-.21-2.64-3.8-3.04-11.78-3.03-9.35.01-14.89-.82-15.29-5.84-.39-4.88,5.89-7.56,15.54-8.33,4.78-.38,9.68-.29,13.45.9l-.68,3.26c-3.73-1.12-8.01-1.29-12.55-.93-5.44.43-11.85,1.56-11.61,4.52.19,2.35,3.24,2.91,11.06,2.87,9.27-.04,15.5.52,15.91,5.8.49,6.22-6.78,8.72-15.41,9.41Z"/><path d="m176.46,45.57l4.67-11.06-22.1-9.33-4.67,11.06-3.7-1.56,9.51-22.52,3.7,1.56-3.57,8.45,22.09,9.33,3.57-8.45,3.7,1.56-9.51,22.52-3.7-1.56Z"/><path d="m189.51,55.87l16.32-18.2,3.02,2.71-16.32,18.2-3.02-2.71Z"/><path d="m218.06,95.41l-.25-.44,2.1-33.58-15.67,9.12-2.02-3.47,21.63-12.59.25.44-2.15,33.56,15.7-9.14,2.04,3.5-21.63,12.59Z"/><path d="m221.97,106.89l24.26-2.98,3.48,28.42-3.24.4-2.99-24.43-6.01.74,2.99,24.43-3.17.39-2.99-24.43-8.6,1.06,2.99,24.43-3.24.4-3.48-28.42Z"/><path class="cls-4" d="m50.4,209.83c-4.93-4.28-.98-10.96,2.13-14.54,3.06-3.53,9.26-8.34,14.1-4.14,4.9,4.25,1.02,10.86-2.16,14.51-3.02,3.47-9.26,8.34-14.07,4.17Zm14.83-17.07c-3.42-2.97-8.22,1.58-10.62,4.35-2.47,2.84-6.21,8.18-2.82,11.12,3.42,2.97,8.24-1.61,10.62-4.35,2.58-2.97,6.17-8.21,2.82-11.12Z"/><path class="cls-4" d="m82.84,228.5l-1.93-12.36-2.09-.92-4.26,9.62-2.45-1.09,9.51-21.48,6,2.66c4.1,1.82,6.08,5.25,4.5,8.82-1.45,3.28-5.03,4.25-8.64,3.11l2.17,12.89-2.82-1.25Zm3.61-21.8l-3.22-1.43-3.58,8.09,2.05.91c3.15,1.39,6.51,1.62,7.93-1.6,1.06-2.39-.36-4.73-3.18-5.98Z"/><path class="cls-4" d="m111.45,236.5l-.37-6.04-7.55-1.64-2.8,5.35-2.66-.58,11.92-21.98,2.47.54,1.74,24.95-2.74-.6Zm-1.11-20.71l-5.87,11.13,6.53,1.42-.67-12.56Z"/><path class="cls-4" d="m146.44,237.44l-.4.04-13.54-15.64,1.82,16.42-2.67.3-2.65-23.87.44-.05,13.55,15.71-1.83-16.49,2.63-.29,2.65,23.87Z"/><path class="cls-4" d="m171.12,231.3c-6.94,2.08-10.86-3.88-12.42-9.09-1.68-5.61-1.23-11.78,7.17-14.3.65-.2,1.47-.4,2.17-.58l.5,2.11c-.7.17-1.28.35-1.74.48-6.79,2.03-6.79,6.91-5.37,11.65,1.09,3.64,3.81,9.23,8.87,7.71.84-.25,1.58-.58,2.05-.98l-2.58-8.61,2.57-.77,3.04,10.15c-1.13.85-2.54,1.71-4.27,2.22Z"/><path class="cls-4" d="m191.69,222.95l-11.56-20.45,11.08-6.27,1.05,1.85-8.75,4.95,3.53,6.25,8.75-4.95,1,1.76-8.75,4.95,4.94,8.74,8.75-4.95,1.04,1.85-11.08,6.27Z"/><path class="cls-4" d="m217.23,205.15c-.54.59-1.09,1.12-1.71,1.69l-1.53-1.69c.59-.49,1.22-1.06,1.71-1.58,2.72-2.94,4.2-6.59,2.15-8.48-1.38-1.28-3.36-1.09-7.15-.07-2.81.73-6.18,1.59-8.4-.46-2.43-2.25-1.86-6.46,2.11-10.75.68-.73,1.25-1.25,1.95-1.9l1.48,1.64c-.67.52-1.27,1.12-1.87,1.76-2.39,2.59-3.64,5.53-1.95,7.09,1.56,1.44,3.95.6,6.68-.09,3.18-.82,6.6-1.48,8.9.65,3.1,2.86,1.49,8.04-2.37,12.21Z"/><path d="m111.72,250.62c-.04.05-.83,1.08-2.48,3.01-1.65,1.93-3.31,3.76-4.95,5.49-.45-.13-.68-.19-1.13-.33-.51-2.61-.92-5.08-1.26-7.41-.34-2.33-.46-3.54-.47-3.65.55-.06.83-.09,1.38-.16,0,.11.11,1.27.41,3.49.3,2.22.66,4.32,1.07,6.3,0,0,.01,0,.02,0,1.42-1.5,2.86-3.12,4.3-4.84,1.44-1.72,2.14-2.64,2.18-2.69.37.32.56.47.94.78Z"/><path d="m119.62,257.66c-.17,1.26-.3,2.28-.41,3.07s-.17,1.22-.18,1.28c-.06,0-.33-.02-.82-.05-.49-.03-1.11-.11-1.87-.23-.47-.08-.95-.19-1.41-.35-.46-.16-.86-.34-1.18-.54-.42-.27-.75-.6-.97-.97-.22-.37-.28-.79-.19-1.24.1-.48.34-.86.74-1.14.39-.29.9-.48,1.51-.59.38-.07.88-.11,1.5-.12.62,0,1.31.02,2.09.07.02-.4-.04-.74-.18-1.02-.14-.28-.38-.51-.7-.7-.22-.13-.48-.23-.77-.32-.28-.09-.62-.16-1.01-.23-.24-.04-.45-.07-.62-.1-.17-.02-.41-.05-.7-.09.13-.39.19-.59.32-.98.08,0,.24.03.48.06.24.03.56.08.98.16.63.11,1.18.26,1.66.46.48.2.86.46,1.15.79.27.31.46.66.57,1.07.11.41.11.98.02,1.72Zm-1.54,1.65c.03-.17.06-.39.09-.66.04-.26.08-.57.12-.91-.25-.02-.68-.04-1.31-.06s-1.16.01-1.6.08c-.33.05-.64.16-.92.33-.28.17-.45.41-.51.72-.06.34-.01.64.16.88.17.25.43.46.78.63.27.13.57.25.9.34.33.09.69.17,1.07.23.12.02.26.04.42.06.17.02.34.04.53.06,0-.04.03-.2.08-.5.05-.3.11-.7.18-1.2Z"/><path d="m125.42,262.63c-.55-.04-.83-.06-1.38-.11.01-.06.08-.81.21-2.23.13-1.43.23-2.62.31-3.56.05-.61.11-1.37.19-2.3.07-.93.15-1.96.23-3.12.49.04.74.06,1.23.09-.07.79-.14,1.69-.21,2.73-.08,1.03-.14,1.9-.19,2.61-.11,1.55-.2,2.9-.27,4.06-.07,1.16-.11,1.77-.11,1.82Z"/><path d="m137.15,258.62c-2.43.11-3.64.12-6.07.09,0,.54.11,1.04.36,1.5.24.45.63.83,1.15,1.13.33.19.71.33,1.14.42.43.09.94.13,1.54.11.33,0,.63-.03.9-.05.27-.02.44-.04.51-.05-.05.41-.07.62-.12,1.03-.05,0-.2.02-.46.04-.26.02-.57.04-.93.04-.93.02-1.75-.08-2.44-.29-.69-.21-1.25-.51-1.68-.89-.37-.32-.68-.72-.93-1.22-.25-.49-.36-1.03-.34-1.63.02-.58.13-1.1.33-1.57.2-.47.49-.9.87-1.29.33-.34.73-.6,1.2-.79.47-.19.96-.28,1.47-.29.5,0,.95.06,1.34.19.39.14.74.34,1.03.62.33.31.59.71.78,1.18.19.47.31,1.04.34,1.71Zm-1.33-.81c-.11-.63-.36-1.12-.74-1.47-.38-.35-.88-.52-1.49-.52-.61,0-1.12.19-1.53.55-.41.36-.7.85-.88,1.47,1.85.03,2.78.02,4.63-.04Z"/><path d="m148.64,261.66c-.55.08-.82.12-1.37.2-.01-.14-.07-.61-.17-1.41-.1-.8-.17-1.29-.2-1.48-.04-.26-.09-.65-.17-1.16-.07-.51-.13-.89-.17-1.12-.1-.58-.28-.98-.53-1.2-.26-.22-.66-.3-1.2-.23-.33.04-.73.18-1.2.42-.47.24-.94.52-1.42.86,0,.06.03.36.08.91.05.55.09,1.05.14,1.5.06.59.13,1.3.23,2.13.1.83.15,1.27.15,1.31-.55.05-.83.08-1.38.12,0-.04-.02-.35-.06-.94-.04-.59-.11-1.47-.2-2.63-.04-.53-.1-1.16-.16-1.88-.06-.72-.14-1.48-.22-2.29.5-.04.76-.06,1.26-.11.03.35.05.53.08.88,0,0,0,0,0,.01.72-.48,1.32-.83,1.8-1.05.48-.22.89-.35,1.22-.39.69-.09,1.26.04,1.74.38.48.35.77.87.88,1.58.1.64.18,1.19.24,1.65.06.46.12.84.16,1.13.07.46.17,1.04.29,1.72.12.69.18,1.05.19,1.08Z"/><path d="m158.97,258.51c.06.41.1.61.16,1.02-.05.01-.12.03-.22.06-.1.03-.18.05-.25.06-.73.19-1.43.3-2.1.32-.67.03-1.28-.02-1.84-.15-.76-.18-1.38-.51-1.88-.98-.49-.47-.8-1.04-.93-1.72-.12-.6-.05-1.19.18-1.76.24-.57.59-1.07,1.05-1.51.42-.39.94-.74,1.57-1.05.63-.31,1.29-.55,2-.73.06-.01.12-.03.18-.05.06-.02.11-.03.15-.04.13.39.19.59.32.98-.04,0-.08.02-.12.03-.04.01-.09.02-.12.03-.59.15-1.09.31-1.49.48-.4.17-.78.38-1.15.62-.48.32-.84.73-1.06,1.23-.22.5-.29.99-.19,1.48.12.58.38,1.05.76,1.38.39.33.87.55,1.42.65.43.08.91.1,1.42.06.51-.04,1.05-.14,1.6-.28.09-.02.19-.05.3-.08.11-.03.19-.05.23-.06Z"/><path d="m161.86,249.07c-.54.17-.81.26-1.35.42-.15-.5-.23-.76-.38-1.26.53-.16.8-.25,1.33-.42.16.5.24.75.4,1.26Zm2.75,8.83c-.53.17-.8.25-1.33.42-.02-.08-.16-.57-.42-1.45-.26-.89-.48-1.62-.66-2.2-.15-.5-.32-1.06-.51-1.66-.19-.6-.41-1.31-.68-2.12.49-.15.74-.23,1.23-.39.21.7.41,1.37.6,1.98.19.61.36,1.16.51,1.63.36,1.14.66,2.04.9,2.73.23.68.35,1.03.36,1.05Z"/><path d="m173.4,249.89c.51,1.16.93,2.1,1.25,2.84.32.73.49,1.13.51,1.18-.05.03-.3.16-.73.39-.44.23-1.02.49-1.73.79-.45.19-.92.33-1.4.44-.48.11-.92.16-1.3.15-.51-.01-.96-.12-1.34-.33-.38-.2-.65-.52-.81-.96-.17-.46-.15-.91.04-1.36.19-.45.52-.88.99-1.3.29-.26.71-.55,1.23-.89.53-.33,1.14-.68,1.84-1.04-.19-.35-.42-.61-.69-.77-.27-.16-.59-.24-.97-.22-.26,0-.54.05-.83.13-.29.08-.62.19-.99.33-.23.09-.43.17-.58.24-.16.07-.38.17-.65.29-.09-.4-.14-.6-.24-1,.07-.03.22-.1.45-.2.22-.1.53-.22.92-.38.6-.24,1.16-.4,1.67-.48.52-.08.99-.06,1.41.07.39.12.75.32,1.05.62.31.29.61.78.91,1.46Zm-.47,2.22c-.07-.16-.16-.36-.26-.61-.1-.24-.23-.52-.37-.84-.23.11-.61.32-1.16.63-.55.31-1,.62-1.34.91-.25.22-.47.47-.62.76-.16.29-.18.58-.07.88.12.32.32.55.6.67.28.12.61.17,1,.13.3-.03.62-.08.95-.18.34-.1.69-.22,1.05-.37.11-.05.24-.1.39-.18.16-.07.32-.14.49-.22-.01-.03-.08-.19-.2-.47-.12-.28-.27-.65-.47-1.12Z"/><path class="cls-2" d="m25.97,160.92c0,.69-.22,1.31-.67,1.87-.45.56-1.04.93-1.79,1.13-.32.08-.67.15-1.05.18s-.8.06-1.27.06v3s-1.15,0-1.15,0c0-.28.01-.81.02-1.58,0-.77.01-1.95.01-3.56,0-.51,0-1.14,0-1.88s-.01-1.57-.03-2.47c.2,0,.4,0,.6,0h.48c.82,0,1.51.05,2.08.16.57.1,1.05.28,1.45.53.43.27.76.62.98,1.05s.34.94.34,1.51Zm-1.2,0c0-.49-.11-.9-.33-1.24-.22-.34-.56-.61-1.02-.81-.28-.12-.59-.2-.92-.23-.33-.03-.67-.05-1.02-.05h-.26c0,.05,0,.41-.01,1.06s-.01,1.18-.01,1.56c0,.35,0,.76,0,1.24,0,.48,0,.75,0,.81h.28c.32,0,.65-.02,1.01-.06.36-.04.66-.12.92-.23.44-.19.78-.45,1.02-.79.23-.33.35-.76.35-1.26Z"/><path class="cls-2" d="m34.77,167.14c-.06,0-.36,0-.9,0-.54,0-1.23,0-2.07,0-.55,0-1.08,0-1.58,0-.5,0-.92,0-1.26,0,0-.81.02-1.63.02-2.47,0-.83.01-1.65.01-2.45,0-1.34,0-2.36-.01-3.07,0-.7-.02-1.2-.02-1.48h1.17c0,.61-.02,1.31-.02,2.11s0,1.45,0,1.96c0,1.24,0,2.28,0,3.11,0,.83,0,1.27,0,1.32.19,0,.43,0,.7,0,.27,0,.52,0,.74,0,.84,0,1.58,0,2.21-.01s.96-.01,1-.01v.99Z"/><path class="cls-2" d="m45.23,157.67c0,.91,0,1.66-.01,2.25,0,.59-.01,1.11-.01,1.55,0,.54,0,1,0,1.38,0,.38,0,.71,0,.99,0,.55-.08,1.03-.24,1.45s-.41.78-.74,1.09-.74.56-1.22.73c-.48.18-1.04.27-1.67.27s-1.19-.09-1.67-.26c-.48-.17-.89-.42-1.23-.74-.33-.31-.58-.68-.74-1.09-.16-.42-.24-.9-.24-1.45,0-.28,0-.61,0-.99,0-.38,0-.84,0-1.38,0-.44,0-.96-.01-1.55,0-.59-.01-1.34-.01-2.25h1.17c0,.12-.01.52-.02,1.21s-.01,1.59-.01,2.71c0,.34,0,.69,0,1.06,0,.36,0,.74,0,1.12,0,.86.25,1.52.74,1.97.5.45,1.17.67,2.01.67.92,0,1.6-.21,2.06-.64s.69-1.09.69-2c0-.38,0-.76,0-1.12,0-.36,0-.72,0-1.06,0-1.12,0-2.04-.01-2.75,0-.71-.01-1.1-.01-1.17h1.17Z"/><path class="cls-2" d="m216.87,160.47h-1.88c-.1.31-.2.62-.29.92s-.19.56-.27.79h1.66v.74h-1.89c-.16.47-.31.94-.46,1.41-.15.47-.23.73-.25.78l-.64-.25c.02-.06.09-.27.22-.64.12-.37.27-.8.43-1.3h-1.58c-.16.47-.31.94-.46,1.41-.15.47-.23.73-.25.79l-.64-.25c.02-.05.09-.26.22-.64.13-.37.27-.81.43-1.3h-1.64v-.74h1.88c.11-.34.21-.63.29-.86.08-.23.17-.51.27-.85h-1.64v-.74h1.88c.15-.46.3-.92.45-1.37.15-.45.23-.7.24-.75l.64.23s-.08.25-.21.61c-.12.37-.26.79-.42,1.28h1.59c.15-.46.3-.92.45-1.37.15-.45.23-.7.24-.75l.64.23s-.08.23-.2.6c-.12.37-.27.8-.43,1.29h1.64v.74Zm-2.58,0h-1.59c-.1.31-.2.62-.29.92-.1.3-.19.56-.27.79h1.59c.11-.34.21-.63.29-.86.08-.23.17-.51.27-.85Z"/><path class="cls-2" d="m227.37,163.79c-.57,0-1.05-.02-1.46-.02-.41,0-.78,0-1.12,0,0,.92,0,1.68,0,2.27s.01.97.02,1.12h-1.09c0-.15,0-.54.01-1.18s.02-1.37.02-2.21l-4.05.03-.45-.84c1.2-1.32,2.27-2.51,3.2-3.59.93-1.08,1.45-1.67,1.55-1.79l.83.49c-.02.81-.03,1.8-.03,2.97,0,1.17,0,1.79,0,1.87.23,0,.53,0,.9,0,.37,0,.93-.01,1.68-.02v.93Zm-3.61-4.73h-.01s-3.31,3.82-3.31,3.82h.01c.05.01.2.02.44.02s.61,0,1.09,0h.74c.31,0,.65,0,1.02,0v-1.81c0-.54,0-1.21.01-2.02Z"/><path class="cls-2" d="m236.41,161.37c0,.56-.1,1.08-.29,1.56-.19.48-.46.88-.8,1.21-.34.33-.73.58-1.18.75-.45.17-.93.26-1.45.26s-1-.09-1.44-.26c-.45-.17-.83-.42-1.16-.75-.35-.35-.62-.77-.81-1.24s-.28-.99-.28-1.55.09-1.04.26-1.49c.17-.45.42-.84.74-1.19.31-.33.7-.6,1.18-.8.47-.2.98-.3,1.53-.3s1.06.09,1.52.28.84.45,1.15.77c.34.35.59.75.77,1.2.18.45.27.96.27,1.53Zm-1.15.06c0-.45-.07-.87-.21-1.26-.14-.39-.34-.72-.6-.98-.22-.23-.47-.4-.76-.52-.29-.12-.62-.18-.98-.18-.4,0-.74.07-1.03.2-.28.13-.52.3-.72.5-.25.25-.45.56-.6.96-.15.39-.22.8-.22,1.21,0,.45.07.87.21,1.25.14.38.36.71.65,1,.21.2.45.36.74.48.28.12.59.18.93.18s.67-.06.96-.17c.29-.12.54-.28.75-.49.28-.26.49-.58.64-.95.15-.37.22-.77.22-1.21Z"/><path class="cls-2" d="m241.92,164.94h-1.1c0-.15.01-.58.03-1.28.01-.7.02-1.67.02-2.91,0-.22,0-.53,0-.94,0-.41,0-.73-.01-.96h-.02c-.21.11-.51.29-.91.55-.4.25-.83.52-1.29.8l-.41-.62c.57-.4,1.17-.82,1.8-1.26.64-.44,1-.69,1.09-.75l.81.56c0,.68-.02,1.39-.02,2.1,0,.72,0,1.14,0,1.27,0,.56,0,1.23.01,2.03,0,.8.01,1.27.02,1.42Z"/><path class="cls-2" d="m252.6,163.79c-.57,0-1.05-.02-1.46-.02-.41,0-.78,0-1.12,0,0,.92,0,1.68,0,2.27s.01.97.02,1.12h-1.09c0-.15,0-.54.01-1.18s.02-1.37.02-2.21l-4.05.03-.45-.84c1.2-1.32,2.27-2.51,3.2-3.59.93-1.08,1.45-1.67,1.55-1.79l.83.49c-.02.81-.03,1.8-.03,2.97,0,1.17,0,1.79,0,1.87.23,0,.53,0,.9,0,.37,0,.93-.01,1.68-.02v.93Zm-3.61-4.73h-.01s-3.31,3.82-3.31,3.82h.01c.05.01.2.02.44.02s.61,0,1.09,0h.74c.31,0,.65,0,1.02,0v-1.81c0-.54,0-1.21.01-2.02Z"/></svg>